<?xml version="1.0" encoding="UTF-8" standalone="no"?><!DOCTYPE svg PUBLIC "-//W3C//DTD SVG 1.1//EN" "http://www.w3.org/Graphics/SVG/1.1/DTD/svg11.dtd"><svg width="100%" height="100%" viewBox="0 0 226 106" version="1.1" xmlns="http://www.w3.org/2000/svg" xmlns:xlink="http://www.w3.org/1999/xlink" xml:space="preserve" xmlns:serif="http://www.serif.com/" style="fill-rule:evenodd;clip-rule:evenodd;stroke-linejoin:round;stroke-miterlimit:2;"><rect id="nutan-medical-and-wholesale-agencies-logo" serif:id="nutan medical and wholesale agencies logo" x="0" y="0" width="225.505" height="105.444" style="fill:none;"/><g><path d="M208.143,47.48c-0,-7.692 -6.245,-13.937 -13.937,-13.937l-155.9,0c-7.692,0 -13.937,6.245 -13.937,13.937c0,7.692 6.245,13.937 13.937,13.937l155.9,-0c7.692,-0 13.937,-6.245 13.937,-13.937Z" style="fill:#f0f0f0;"/><text x="55.738px" y="30.663px" style="font-family:'Outfit-Light', 'Outfit';font-weight:300;font-size:24.521px;fill:#0087ce;">nut<tspan x="90.043px " y="30.663px ">a</tspan>n</text><text x="55.381px" y="58.846px" style="font-family:'Outfit-Bold', 'Outfit';font-weight:700;font-size:30.845px;fill:#231f20;">MEDIC<tspan x="153.808px 176.047px " y="58.846px 58.846px ">AL</tspan></text><text x="56.131px" y="72.119px" style="font-family:'Outfit-Regular', 'Outfit';font-size:11.443px;fill:#231f20;">&amp;<tspan x="63.237px " y="72.119px "> </tspan>WHOLE<tspan x="106.868px 112.967px " y="72.119px 72.119px ">SA</tspan>LE  <tspan x="138.347px 145.716px " y="72.119px 72.119px ">AG</tspan>ENCIE<tspan x="186.806px " y="72.119px ">S</tspan></text><g><circle cx="31.796" cy="47.48" r="13.937" style="fill:#ff3900;"/><text x="22.327px" y="58.765px" style="font-family:'Outfit-Bold', 'Outfit';font-weight:700;font-size:33.636px;fill:#fff;">+</text></g></g></svg>