<?xml version="1.0" encoding="UTF-8" standalone="no"?><!DOCTYPE svg PUBLIC "-//W3C//DTD SVG 1.1//EN" "http://www.w3.org/Graphics/SVG/1.1/DTD/svg11.dtd"><svg width="100%" height="100%" viewBox="0 0 229 67" version="1.1" xmlns="http://www.w3.org/2000/svg" xmlns:xlink="http://www.w3.org/1999/xlink" xml:space="preserve" xmlns:serif="http://www.serif.com/" style="fill-rule:evenodd;clip-rule:evenodd;stroke-linejoin:round;stroke-miterlimit:2;"><rect id="nutan-medical-and-wholesale-agencies-logo" serif:id="nutan medical and wholesale agencies logo" x="0" y="-0" width="228.679" height="66.012" style="fill:none;"/><g><path d="M53.943,22.24c1.941,-3.17 3.436,-5.617 3.973,-6.497l0,-4.888c-0.679,1.167 -2.323,3.991 -4.385,7.53l0.185,3.266l0.227,0.589Z" style="fill:#f53440;fill-rule:nonzero;"/><path d="M38.065,44.531c-1.395,2.001 -3.676,2.001 -4.258,-0.692c-0.798,-3.688 -4.865,-30.445 -5.153,-33.075c-0.294,-2.714 -2.48,-2.769 -3.596,-1.304l-24.204,33.014c-0,-0.018 -0.013,0.116 -0.031,0.34l0,4.431c2.99,-4.204 21.684,-30.494 22.991,-32.447c1.532,-2.29 3.536,-2.129 3.918,-0.543c0.386,1.592 4.434,23.837 5.747,31.789c0.467,2.814 3.073,3.745 4.701,1.583c0.849,-1.128 7.3,-11.585 12.64,-20.289l-1.106,-2.42c-5.098,8.716 -10.754,18.33 -11.649,19.613" style="fill:#f53440;fill-rule:nonzero;"/><path d="M36.948,53.218c-1.395,2.002 -3.676,2.002 -4.258,-0.691c-0.798,-3.688 -4.864,-30.445 -5.153,-33.075c-0.294,-2.714 -2.48,-2.769 -3.596,-1.304l-23.119,31.534l0,4.68c4.998,-7.027 20.683,-29.093 21.875,-30.876c1.532,-2.29 3.536,-2.129 3.918,-0.543c0.386,1.592 4.434,23.837 5.747,31.789c0.468,2.814 3.073,3.745 4.701,1.583c0.977,-1.298 9.775,-15.443 15.625,-24.884l-1.159,-2.538c-5.807,9.811 -13.547,22.842 -14.581,24.325" style="fill:#0082ca;fill-rule:nonzero;"/><path d="M57.277,24.022c0.409,-0.661 0.639,-1.034 0.639,-1.034l0,-4.907c-0.388,0.652 -1.649,2.793 -3.369,5.708l0.458,1.176l2.272,-0.943Z" style="fill:#0082ca;fill-rule:nonzero;"/><path d="M53.168,13.696c-0.028,-2.162 -0.152,-5.877 -1.753,-6.138c-1.598,-0.258 -2.42,2.414 -2.617,5.92c-0.197,3.506 0.3,8.552 1.143,8.634c0.312,0.03 0.631,-0.231 0.937,-0.664c0.143,-0.158 0.276,-0.313 0.4,-0.467l1.311,-2.132c0.545,-1.365 0.606,-2.86 0.579,-5.153" style="fill:#0082ca;fill-rule:nonzero;"/><path d="M51.28,20.982c0.606,-0.74 1.025,-1.42 1.31,-2.132l-1.31,2.132Z" style="fill:#0082ca;fill-rule:nonzero;"/><path d="M59.37,24.021c-2.941,2.308 -4.085,3.463 -4.606,6.642c-0.146,0.509 -0.149,0.922 0.072,1.146c0.589,0.606 4.835,-2.168 7.443,-4.519c2.608,-2.35 4.176,-4.667 2.975,-5.747c-1.21,-1.086 -4.182,1.144 -5.884,2.478" style="fill:#f53440;fill-rule:nonzero;"/></g><g><path d="M69.303,39.132l0,-28.479l5.6,0l2.4,6l0,22.479l-8,0Zm19.6,0l-16.52,-20.759l2.52,-7.72l16.519,20.759l-2.519,7.72Zm-0,0l-2,-6.32l-0,-22.159l7.999,0l0,28.479l-5.999,0Z" style="fill:#ef3742;fill-rule:nonzero;"/><path d="M111.582,39.612c-2.507,0 -4.693,-0.513 -6.56,-1.54c-1.867,-1.026 -3.32,-2.446 -4.36,-4.26c-1.04,-1.813 -1.56,-3.893 -1.56,-6.239l0,-16.92l8,0l-0,17.64c-0,0.906 0.2,1.68 0.6,2.32c0.4,0.639 0.94,1.126 1.62,1.459c0.68,0.334 1.433,0.5 2.26,0.5c0.853,0 1.606,-0.166 2.26,-0.5c0.653,-0.333 1.166,-0.813 1.54,-1.439c0.373,-0.627 0.559,-1.394 0.559,-2.3l0,-17.68l8.04,0l0,16.96c0,2.346 -0.513,4.419 -1.54,6.219c-1.026,1.8 -2.466,3.214 -4.32,4.24c-1.853,1.027 -4.033,1.54 -6.539,1.54Z" style="fill:#ef3742;fill-rule:nonzero;"/><path d="M134.981,39.132l-0,-28.479l7.999,0l0,28.479l-7.999,0Zm-8.52,-21.679l0,-6.8l25.079,0l0,6.8l-25.079,0Z" style="fill:#ef3742;fill-rule:nonzero;"/><path d="M149.3,39.132l10.84,-28.479l8.159,0l10.72,28.479l-8.32,0l-7.959,-24.199l2.879,0l-8.159,24.199l-8.16,0Zm7.04,-4.8l-0,-6.239l15.919,-0l0,6.239l-15.919,0Z" style="fill:#ef3742;fill-rule:nonzero;"/><path d="M181.299,39.132l-0,-28.479l5.6,0l2.4,6l-0,22.479l-8,0Zm19.599,0l-16.519,-20.759l2.52,-7.72l16.519,20.759l-2.52,7.72Zm0,0l-2,-6.32l0,-22.159l8,0l-0,28.479l-6,0Z" style="fill:#ef3742;fill-rule:nonzero;"/></g><path d="M69.303,56.734l0,-13.147l2.086,0l5.177,8.063l-1.062,0l5.159,-8.063l2.104,0l-0,13.147l-2.924,-0l0,-8.212l0.522,0.13l-3.371,5.251l-1.937,0l-3.351,-5.251l0.502,-0.13l0,8.212l-2.905,-0Z" style="fill:#1886c8;fill-rule:nonzero;"/><path d="M85.839,56.734l0,-13.147l2.924,0l0,13.147l-2.924,-0Zm2.235,-0l0,-2.533l7.207,0l-0,2.533l-7.207,-0Zm0,-5.493l0,-2.44l6.555,0l-0,2.44l-6.555,-0Zm0,-5.14l0,-2.514l7.113,0l0,2.514l-7.113,-0Z" style="fill:#1886c8;fill-rule:nonzero;"/><path d="M99.824,56.734l0,-2.57l3.259,0c0.795,0 1.49,-0.158 2.086,-0.475c0.596,-0.316 1.055,-0.779 1.378,-1.387c0.322,-0.608 0.484,-1.328 0.484,-2.16c-0,-0.832 -0.165,-1.546 -0.494,-2.142c-0.329,-0.596 -0.788,-1.055 -1.378,-1.378c-0.589,-0.322 -1.281,-0.484 -2.076,-0.484l-3.352,0l0,-2.551l3.389,0c0.993,0 1.909,0.158 2.747,0.475c0.838,0.316 1.57,0.77 2.197,1.359c0.627,0.59 1.111,1.285 1.453,2.086c0.341,0.801 0.512,1.685 0.512,2.653c-0,0.956 -0.171,1.838 -0.512,2.645c-0.342,0.807 -0.823,1.502 -1.443,2.085c-0.621,0.584 -1.35,1.037 -2.188,1.36c-0.838,0.323 -1.748,0.484 -2.728,0.484l-3.334,-0Zm-1.974,-0l0,-13.147l2.924,0l-0,13.147l-2.924,-0Z" style="fill:#1886c8;fill-rule:nonzero;"/><rect x="112.45" y="43.587" width="2.924" height="13.147" style="fill:#1886c8;fill-rule:nonzero;"/><path d="M124.703,56.939c-0.981,-0 -1.89,-0.171 -2.728,-0.512c-0.838,-0.342 -1.571,-0.823 -2.198,-1.444c-0.627,-0.62 -1.114,-1.343 -1.461,-2.169c-0.348,-0.825 -0.522,-1.716 -0.522,-2.672c0,-0.956 0.174,-1.847 0.522,-2.672c0.347,-0.826 0.831,-1.543 1.452,-2.151c0.621,-0.608 1.35,-1.083 2.188,-1.425c0.838,-0.341 1.747,-0.512 2.728,-0.512c1.043,0 1.971,0.168 2.784,0.503c0.813,0.335 1.524,0.795 2.132,1.378l-1.955,1.974c-0.348,-0.373 -0.767,-0.664 -1.257,-0.875c-0.49,-0.211 -1.058,-0.317 -1.704,-0.317c-0.571,0 -1.095,0.096 -1.573,0.289c-0.478,0.192 -0.888,0.468 -1.229,0.828c-0.342,0.36 -0.609,0.795 -0.801,1.304c-0.193,0.509 -0.289,1.068 -0.289,1.676c0,0.621 0.096,1.185 0.289,1.694c0.192,0.509 0.459,0.944 0.801,1.304c0.341,0.36 0.751,0.639 1.229,0.838c0.478,0.199 1.002,0.298 1.573,0.298c0.671,-0 1.254,-0.106 1.751,-0.317c0.496,-0.211 0.925,-0.502 1.285,-0.875l1.973,1.974c-0.633,0.583 -1.356,1.043 -2.169,1.378c-0.813,0.335 -1.754,0.503 -2.821,0.503Z" style="fill:#1886c8;fill-rule:nonzero;"/><path d="M130.531,56.734l5.214,-13.147l2.645,0l5.158,13.147l-3.091,-0l-3.948,-10.912l1.061,-0l-4.003,10.912l-3.036,-0Zm2.961,-2.384l0,-2.383l7.17,-0l-0,2.383l-7.17,0Z" style="fill:#1886c8;fill-rule:nonzero;"/><path d="M145.503,56.734l0,-13.147l2.924,0l-0,13.147l-2.924,-0Zm2.253,-0l0,-2.57l6.499,0l0,2.57l-6.499,-0Z" style="fill:#1886c8;fill-rule:nonzero;"/><path d="M166.858,56.734l-6.033,-6.629c-0.472,-0.522 -0.813,-1.015 -1.024,-1.481c-0.211,-0.465 -0.317,-0.977 -0.317,-1.536c0,-0.67 0.171,-1.288 0.512,-1.853c0.342,-0.565 0.807,-1.018 1.397,-1.359c0.59,-0.342 1.275,-0.512 2.058,-0.512c0.608,-0 1.148,0.09 1.62,0.27c0.471,0.18 0.881,0.409 1.229,0.689c0.347,0.279 0.614,0.574 0.8,0.884l-1.899,1.806c-0.248,-0.335 -0.506,-0.589 -0.773,-0.763c-0.267,-0.174 -0.58,-0.261 -0.94,-0.261c-0.373,0 -0.68,0.109 -0.922,0.326c-0.242,0.217 -0.363,0.487 -0.363,0.81c-0,0.273 0.059,0.515 0.177,0.726c0.118,0.211 0.288,0.447 0.512,0.708l7.3,8.175l-3.334,-0Zm-4.32,0.205c-0.894,-0 -1.673,-0.177 -2.337,-0.531c-0.664,-0.354 -1.179,-0.838 -1.545,-1.452c-0.367,-0.615 -0.55,-1.301 -0.55,-2.058c0,-0.819 0.217,-1.549 0.652,-2.188c0.434,-0.64 1.086,-1.158 1.955,-1.555l1.211,1.843c-0.373,0.174 -0.652,0.404 -0.838,0.689c-0.187,0.286 -0.28,0.627 -0.28,1.025c0,0.322 0.072,0.605 0.214,0.847c0.143,0.242 0.351,0.431 0.624,0.568c0.273,0.136 0.596,0.205 0.969,0.205c0.422,-0 0.785,-0.09 1.089,-0.27c0.304,-0.18 0.562,-0.432 0.773,-0.754l1.918,1.973c-0.211,0.274 -0.512,0.537 -0.903,0.792c-0.391,0.254 -0.838,0.462 -1.341,0.624c-0.503,0.161 -1.04,0.242 -1.611,0.242Z" style="fill:#1886c8;fill-rule:nonzero;"/><path d="M173.828,49.404l-1.784,-5.548l1.226,-0l1.305,4.267l-0.48,0l1.273,-4.267l0.967,-0l1.273,4.267l-0.471,0l1.296,-4.267l1.218,-0l-1.784,5.548l-0.966,0l-1.281,-4.267l0.456,-0l-1.281,4.267l-0.967,0Z" style="fill:#1886c8;fill-rule:nonzero;"/><path d="M180.555,49.404l0,-5.548l1.234,-0l-0,5.548l-1.234,0Zm3.434,0l0,-5.548l1.242,-0l-0,5.548l-1.242,0Zm-2.695,-2.318l-0,-1.069l3.104,0l-0,1.069l-3.104,-0Z" style="fill:#1886c8;fill-rule:nonzero;"/><path d="M189.176,49.498c-0.419,0 -0.806,-0.073 -1.159,-0.22c-0.354,-0.146 -0.664,-0.351 -0.932,-0.613c-0.267,-0.262 -0.474,-0.567 -0.62,-0.915c-0.147,-0.349 -0.22,-0.724 -0.22,-1.128c-0,-0.408 0.073,-0.786 0.22,-1.131c0.146,-0.346 0.351,-0.649 0.613,-0.908c0.262,-0.259 0.569,-0.461 0.923,-0.605c0.354,-0.144 0.74,-0.216 1.159,-0.216c0.414,-0 0.798,0.072 1.151,0.216c0.354,0.144 0.663,0.346 0.928,0.605c0.264,0.259 0.47,0.563 0.617,0.911c0.146,0.349 0.22,0.727 0.22,1.136c-0,0.403 -0.074,0.779 -0.22,1.128c-0.147,0.348 -0.351,0.652 -0.613,0.911c-0.262,0.26 -0.57,0.463 -0.924,0.609c-0.353,0.147 -0.735,0.22 -1.143,0.22Zm-0.016,-1.123c0.33,-0 0.62,-0.074 0.868,-0.22c0.249,-0.147 0.442,-0.353 0.578,-0.617c0.136,-0.265 0.204,-0.57 0.204,-0.916c0,-0.262 -0.039,-0.499 -0.117,-0.711c-0.079,-0.212 -0.192,-0.396 -0.338,-0.55c-0.147,-0.155 -0.321,-0.273 -0.523,-0.354c-0.202,-0.081 -0.426,-0.122 -0.672,-0.122c-0.33,0 -0.619,0.072 -0.868,0.217c-0.249,0.144 -0.442,0.345 -0.578,0.605c-0.136,0.259 -0.204,0.564 -0.204,0.915c-0,0.262 0.039,0.5 0.118,0.715c0.078,0.215 0.19,0.4 0.334,0.554c0.144,0.155 0.318,0.274 0.522,0.358c0.205,0.084 0.43,0.126 0.676,0.126Z" style="fill:#1886c8;fill-rule:nonzero;"/><path d="M193.097,49.404l0,-5.548l1.234,-0l0,5.548l-1.234,0Zm0.951,0l0,-1.084l2.743,-0l-0,1.084l-2.743,0Z" style="fill:#1886c8;fill-rule:nonzero;"/><path d="M197.742,49.404l-0,-5.548l1.233,-0l0,5.548l-1.233,0Zm0.943,0l-0,-1.069l3.041,0l-0,1.069l-3.041,0Zm-0,-2.318l-0,-1.03l2.766,0l-0,1.03l-2.766,-0Zm-0,-2.169l-0,-1.061l3.002,-0l-0,1.061l-3.002,-0Z" style="fill:#1886c8;fill-rule:nonzero;"/><path d="M204.335,49.491c-0.456,-0 -0.848,-0.075 -1.175,-0.224c-0.327,-0.15 -0.627,-0.376 -0.9,-0.68l0.802,-0.794c0.178,0.204 0.376,0.363 0.593,0.476c0.218,0.112 0.47,0.168 0.758,0.168c0.262,0 0.465,-0.047 0.61,-0.141c0.144,-0.094 0.216,-0.225 0.216,-0.393c-0,-0.152 -0.048,-0.275 -0.142,-0.369c-0.094,-0.095 -0.219,-0.176 -0.373,-0.244c-0.155,-0.068 -0.325,-0.133 -0.511,-0.196c-0.186,-0.063 -0.371,-0.135 -0.554,-0.216c-0.183,-0.082 -0.352,-0.184 -0.507,-0.307c-0.154,-0.123 -0.279,-0.278 -0.373,-0.464c-0.094,-0.186 -0.142,-0.42 -0.142,-0.703c0,-0.34 0.083,-0.634 0.248,-0.88c0.165,-0.246 0.394,-0.434 0.688,-0.562c0.293,-0.128 0.631,-0.192 1.013,-0.192c0.388,-0 0.743,0.068 1.065,0.204c0.322,0.136 0.588,0.322 0.798,0.558l-0.802,0.794c-0.167,-0.173 -0.336,-0.302 -0.507,-0.386c-0.17,-0.083 -0.362,-0.125 -0.577,-0.125c-0.215,-0 -0.385,0.04 -0.511,0.122c-0.126,0.081 -0.189,0.197 -0.189,0.349c0,0.142 0.048,0.256 0.142,0.342c0.094,0.087 0.219,0.161 0.373,0.224c0.155,0.063 0.325,0.126 0.511,0.189c0.186,0.063 0.371,0.136 0.554,0.22c0.183,0.083 0.352,0.19 0.507,0.318c0.154,0.128 0.279,0.291 0.373,0.487c0.094,0.197 0.142,0.439 0.142,0.727c-0,0.529 -0.189,0.944 -0.566,1.246c-0.377,0.301 -0.899,0.452 -1.564,0.452Z" style="fill:#1886c8;fill-rule:nonzero;"/><path d="M206.912,49.404l2.201,-5.548l1.116,-0l2.177,5.548l-1.305,0l-1.666,-4.605l0.448,-0l-1.69,4.605l-1.281,0Zm1.25,-1.006l-0,-1.006l3.025,0l0,1.006l-3.025,0Z" style="fill:#1886c8;fill-rule:nonzero;"/><path d="M213.231,49.404l-0,-5.548l1.233,-0l0,5.548l-1.233,0Zm0.951,0l-0,-1.084l2.742,-0l0,1.084l-2.742,0Z" style="fill:#1886c8;fill-rule:nonzero;"/><path d="M172.044,57.42l2.201,-5.548l1.116,-0l2.176,5.548l-1.304,-0l-1.666,-4.605l0.448,-0l-1.69,4.605l-1.281,-0Zm1.25,-1.006l-0,-1.006l3.025,-0l0,1.006l-3.025,-0Z" style="fill:#1886c8;fill-rule:nonzero;"/><path d="M180.681,57.506c-0.404,0 -0.782,-0.073 -1.136,-0.22c-0.353,-0.147 -0.661,-0.35 -0.923,-0.609c-0.262,-0.259 -0.468,-0.563 -0.617,-0.911c-0.149,-0.349 -0.224,-0.725 -0.224,-1.128c0,-0.404 0.076,-0.778 0.228,-1.124c0.152,-0.346 0.363,-0.648 0.633,-0.908c0.269,-0.259 0.585,-0.461 0.946,-0.605c0.362,-0.144 0.75,-0.216 1.164,-0.216c0.476,0 0.91,0.087 1.3,0.26c0.39,0.172 0.714,0.411 0.971,0.715l-0.841,0.841c-0.178,-0.231 -0.388,-0.404 -0.629,-0.519c-0.241,-0.115 -0.513,-0.173 -0.817,-0.173c-0.325,-0 -0.616,0.072 -0.872,0.216c-0.257,0.144 -0.458,0.346 -0.602,0.605c-0.144,0.26 -0.216,0.562 -0.216,0.908c0,0.346 0.071,0.649 0.212,0.911c0.142,0.262 0.336,0.467 0.582,0.613c0.246,0.147 0.529,0.22 0.849,0.22c0.324,0 0.601,-0.061 0.829,-0.184c0.228,-0.123 0.403,-0.301 0.526,-0.535c0.123,-0.233 0.185,-0.517 0.185,-0.852l0.817,0.55l-2.475,-0.039l-0,-1.046l2.915,0l0,0.181c0,0.665 -0.119,1.225 -0.357,1.678c-0.239,0.453 -0.569,0.795 -0.99,1.025c-0.422,0.231 -0.908,0.346 -1.458,0.346Z" style="fill:#1886c8;fill-rule:nonzero;"/><path d="M184.469,57.42l-0,-5.548l1.233,-0l0,5.548l-1.233,-0Zm0.943,-0l-0,-1.069l3.041,0l-0,1.069l-3.041,-0Zm-0,-2.318l-0,-1.03l2.766,0l-0,1.03l-2.766,-0Zm-0,-2.169l-0,-1.061l3.002,-0l-0,1.061l-3.002,-0Z" style="fill:#1886c8;fill-rule:nonzero;"/><path d="M189.537,57.42l0,-5.548l0.865,-0l0.369,1.108l0,4.44l-1.234,-0Zm3.827,-0l-3.269,-4.189l0.307,-1.359l3.269,4.188l-0.307,1.36Zm0,-0l-0.33,-1.108l0,-4.44l1.234,-0l0,5.548l-0.904,-0Z" style="fill:#1886c8;fill-rule:nonzero;"/><path d="M198.205,57.506c-0.414,0 -0.797,-0.072 -1.151,-0.216c-0.354,-0.144 -0.663,-0.347 -0.927,-0.609c-0.265,-0.262 -0.471,-0.567 -0.617,-0.915c-0.147,-0.349 -0.22,-0.725 -0.22,-1.128c-0,-0.404 0.073,-0.779 0.22,-1.128c0.146,-0.348 0.351,-0.651 0.613,-0.907c0.262,-0.257 0.569,-0.458 0.923,-0.602c0.354,-0.144 0.738,-0.216 1.151,-0.216c0.44,0 0.832,0.071 1.175,0.212c0.343,0.142 0.643,0.336 0.9,0.582l-0.825,0.833c-0.147,-0.157 -0.324,-0.28 -0.531,-0.369c-0.206,-0.089 -0.446,-0.134 -0.719,-0.134c-0.241,-0 -0.462,0.041 -0.664,0.122c-0.201,0.081 -0.374,0.198 -0.518,0.349c-0.144,0.152 -0.257,0.336 -0.338,0.551c-0.081,0.214 -0.122,0.45 -0.122,0.707c-0,0.262 0.041,0.5 0.122,0.715c0.081,0.215 0.194,0.398 0.338,0.55c0.144,0.152 0.317,0.27 0.518,0.354c0.202,0.084 0.423,0.125 0.664,0.125c0.283,0 0.53,-0.044 0.739,-0.133c0.21,-0.089 0.39,-0.212 0.542,-0.369l0.833,0.833c-0.267,0.246 -0.572,0.44 -0.915,0.581c-0.343,0.141 -0.74,0.212 -1.191,0.212Z" style="fill:#1886c8;fill-rule:nonzero;"/><rect x="201.223" y="51.872" width="1.234" height="5.548" style="fill:#1886c8;fill-rule:nonzero;"/><path d="M203.761,57.42l0,-5.548l1.234,-0l0,5.548l-1.234,-0Zm0.943,-0l0,-1.069l3.041,0l0,1.069l-3.041,-0Zm0,-2.318l0,-1.03l2.766,0l0,1.03l-2.766,-0Zm0,-2.169l0,-1.061l3.002,-0l0,1.061l-3.002,-0Z" style="fill:#1886c8;fill-rule:nonzero;"/><path d="M210.354,57.506c-0.455,0 -0.847,-0.074 -1.174,-0.224c-0.328,-0.149 -0.628,-0.376 -0.9,-0.68l0.801,-0.793c0.179,0.204 0.376,0.363 0.594,0.475c0.217,0.113 0.47,0.169 0.758,0.169c0.262,0 0.465,-0.047 0.609,-0.141c0.144,-0.095 0.216,-0.226 0.216,-0.393c0,-0.152 -0.047,-0.275 -0.141,-0.37c-0.095,-0.094 -0.219,-0.175 -0.374,-0.243c-0.154,-0.068 -0.324,-0.134 -0.51,-0.197c-0.186,-0.062 -0.371,-0.135 -0.554,-0.216c-0.184,-0.081 -0.353,-0.183 -0.507,-0.306c-0.155,-0.123 -0.279,-0.278 -0.373,-0.464c-0.095,-0.186 -0.142,-0.42 -0.142,-0.703c0,-0.341 0.083,-0.634 0.248,-0.88c0.165,-0.247 0.394,-0.434 0.687,-0.562c0.294,-0.129 0.632,-0.193 1.014,-0.193c0.388,0 0.743,0.068 1.065,0.205c0.322,0.136 0.588,0.322 0.797,0.557l-0.801,0.794c-0.168,-0.173 -0.337,-0.301 -0.507,-0.385c-0.17,-0.084 -0.363,-0.126 -0.578,-0.126c-0.214,0 -0.385,0.041 -0.51,0.122c-0.126,0.081 -0.189,0.198 -0.189,0.35c-0,0.141 0.047,0.255 0.141,0.342c0.095,0.086 0.219,0.161 0.374,0.224c0.154,0.063 0.325,0.125 0.511,0.188c0.186,0.063 0.37,0.137 0.554,0.22c0.183,0.084 0.352,0.19 0.506,0.319c0.155,0.128 0.279,0.29 0.374,0.487c0.094,0.196 0.141,0.439 0.141,0.727c0,0.529 -0.188,0.944 -0.566,1.245c-0.377,0.302 -0.898,0.452 -1.564,0.452Z" style="fill:#1886c8;fill-rule:nonzero;"/><path d="M217.875,49.404l0,-5.548l1.234,-0l-0,5.548l-1.234,0Zm0.943,0l0,-1.069l3.041,0l0,1.069l-3.041,0Zm0,-2.318l0,-1.03l2.766,0l0,1.03l-2.766,-0Zm0,-2.169l0,-1.061l3.002,-0l0,1.061l-3.002,-0Z" style="fill:#1886c8;fill-rule:nonzero;"/></svg>