<?xml version="1.0" encoding="UTF-8" standalone="no"?><!DOCTYPE svg PUBLIC "-//W3C//DTD SVG 1.1//EN" "http://www.w3.org/Graphics/SVG/1.1/DTD/svg11.dtd"><svg width="100%" height="100%" viewBox="0 0 221 67" version="1.1" xmlns="http://www.w3.org/2000/svg" xmlns:xlink="http://www.w3.org/1999/xlink" xml:space="preserve" xmlns:serif="http://www.serif.com/" style="fill-rule:evenodd;clip-rule:evenodd;stroke-linejoin:round;stroke-miterlimit:2;"><rect id="nutan-medical-and-wholesale-agencies-logo" serif:id="nutan medical and wholesale agencies logo" x="0" y="-0" width="220.641" height="66.012" style="fill:none;"/><g><path d="M39.404,18.216c1.41,-2.301 2.496,-4.079 2.886,-4.718l-0,-3.55c-0.494,0.848 -1.688,2.898 -3.185,5.469l0.134,2.372l0.165,0.427Z" style="fill:#f53440;fill-rule:nonzero;"/><path d="M27.872,34.407c-1.014,1.453 -2.67,1.453 -3.093,-0.503c-0.579,-2.678 -3.533,-22.112 -3.742,-24.022c-0.214,-1.971 -1.802,-2.011 -2.613,-0.947l-17.579,23.978c-0,-0.013 -0.009,0.084 -0.022,0.247l-0,3.218c2.172,-3.053 15.749,-22.148 16.698,-23.566c1.113,-1.663 2.569,-1.547 2.846,-0.395c0.28,1.157 3.22,17.313 4.174,23.089c0.339,2.044 2.232,2.72 3.414,1.149c0.617,-0.819 5.302,-8.414 9.181,-14.735l-0.804,-1.758c-3.703,6.33 -7.811,13.313 -8.46,14.245" style="fill:#f53440;fill-rule:nonzero;"/><path d="M27.06,40.716c-1.013,1.454 -2.669,1.454 -3.092,-0.502c-0.579,-2.678 -3.533,-22.112 -3.742,-24.022c-0.214,-1.971 -1.802,-2.011 -2.613,-0.947l-16.791,22.903l0,3.399c3.63,-5.104 15.022,-21.13 15.888,-22.425c1.112,-1.663 2.568,-1.547 2.846,-0.395c0.28,1.157 3.22,17.313 4.174,23.089c0.339,2.044 2.231,2.72 3.414,1.149c0.709,-0.942 7.099,-11.216 11.348,-18.072l-0.841,-1.844c-4.218,7.126 -9.839,16.59 -10.591,17.667" style="fill:#0082ca;fill-rule:nonzero;"/><path d="M41.825,19.511c0.297,-0.48 0.465,-0.751 0.465,-0.751l-0,-3.564c-0.282,0.474 -1.198,2.029 -2.447,4.146l0.332,0.854l1.65,-0.685Z" style="fill:#0082ca;fill-rule:nonzero;"/><path d="M38.841,12.011c-0.02,-1.57 -0.11,-4.268 -1.273,-4.458c-1.161,-0.187 -1.758,1.753 -1.901,4.3c-0.143,2.546 0.218,6.211 0.83,6.271c0.227,0.022 0.458,-0.168 0.681,-0.483c0.103,-0.114 0.2,-0.227 0.291,-0.339l0.951,-1.548c0.397,-0.992 0.441,-2.077 0.421,-3.743" style="fill:#0082ca;fill-rule:nonzero;"/><path d="M37.47,17.303c0.44,-0.538 0.744,-1.031 0.951,-1.549l-0.951,1.549Z" style="fill:#0082ca;fill-rule:nonzero;"/><path d="M43.346,19.51c-2.137,1.677 -2.967,2.516 -3.346,4.824c-0.106,0.37 -0.108,0.67 0.053,0.833c0.427,0.44 3.511,-1.575 5.405,-3.282c1.894,-1.707 3.033,-3.39 2.161,-4.174c-0.879,-0.789 -3.037,0.83 -4.273,1.799" style="fill:#f53440;fill-rule:nonzero;"/></g><g><path d="M53.878,37.041l0,-28.479l5.6,-0l2.4,6l-0,22.479l-8,-0Zm19.599,-0l-16.519,-20.759l2.52,-7.72l16.519,20.759l-2.52,7.72Zm0,-0l-2,-6.32l0,-22.159l8,-0l0,28.479l-6,-0Z" style="fill:#ef3742;fill-rule:nonzero;"/><path d="M96.156,37.521c-2.506,-0 -4.693,-0.514 -6.559,-1.54c-1.867,-1.027 -3.32,-2.447 -4.36,-4.26c-1.04,-1.813 -1.56,-3.893 -1.56,-6.24l-0,-16.919l8,-0l-0,17.639c-0,0.907 0.2,1.68 0.6,2.32c0.4,0.64 0.94,1.127 1.619,1.46c0.68,0.333 1.434,0.5 2.26,0.5c0.854,0 1.607,-0.167 2.26,-0.5c0.654,-0.333 1.167,-0.813 1.54,-1.44c0.374,-0.626 0.56,-1.393 0.56,-2.3l0,-17.679l8.04,-0l-0,16.959c-0,2.347 -0.513,4.42 -1.54,6.22c-1.027,1.8 -2.467,3.213 -4.32,4.24c-1.853,1.026 -4.033,1.54 -6.54,1.54Z" style="fill:#ef3742;fill-rule:nonzero;"/><path d="M119.555,37.041l0,-28.479l8,-0l0,28.479l-8,-0Zm-8.519,-21.679l-0,-6.8l25.079,-0l-0,6.8l-25.079,-0Z" style="fill:#ef3742;fill-rule:nonzero;"/><path d="M133.875,37.041l10.839,-28.479l8.16,-0l10.72,28.479l-8.32,-0l-7.96,-24.199l2.88,-0l-8.159,24.199l-8.16,-0Zm7.04,-4.8l-0,-6.24l15.919,0l-0,6.24l-15.919,-0Z" style="fill:#ef3742;fill-rule:nonzero;"/><path d="M165.874,37.041l-0,-28.479l5.599,-0l2.4,6l0,22.479l-7.999,-0Zm19.599,-0l-16.52,-20.759l2.52,-7.72l16.52,20.759l-2.52,7.72Zm-0,-0l-2,-6.32l-0,-22.159l8,-0l-0,28.479l-6,-0Z" style="fill:#ef3742;fill-rule:nonzero;"/></g><path d="M53.878,54.643l0,-13.147l2.086,-0l5.177,8.063l-1.062,-0l5.158,-8.063l2.105,-0l-0,13.147l-2.924,-0l-0,-8.213l0.521,0.131l-3.37,5.251l-1.937,0l-3.352,-5.251l0.503,-0.131l0,8.213l-2.905,-0Z" style="fill:#1886c8;fill-rule:nonzero;"/><path d="M70.414,54.643l0,-13.147l2.924,-0l-0,13.147l-2.924,-0Zm2.235,-0l-0,-2.533l7.206,0l0,2.533l-7.206,-0Zm-0,-5.494l-0,-2.439l6.555,-0l-0,2.439l-6.555,0Zm-0,-5.139l-0,-2.514l7.113,-0l0,2.514l-7.113,-0Z" style="fill:#1886c8;fill-rule:nonzero;"/><path d="M84.399,54.643l0,-2.57l3.259,-0c0.794,-0 1.49,-0.159 2.085,-0.475c0.596,-0.317 1.056,-0.779 1.378,-1.387c0.323,-0.609 0.485,-1.329 0.485,-2.161c-0,-0.831 -0.165,-1.545 -0.494,-2.141c-0.329,-0.596 -0.788,-1.055 -1.378,-1.378c-0.59,-0.323 -1.282,-0.484 -2.076,-0.484l-3.352,-0l-0,-2.551l3.389,-0c0.993,-0 1.909,0.158 2.747,0.475c0.838,0.316 1.57,0.769 2.197,1.359c0.627,0.59 1.111,1.285 1.453,2.086c0.341,0.8 0.512,1.685 0.512,2.653c-0,0.956 -0.171,1.837 -0.512,2.644c-0.342,0.807 -0.823,1.503 -1.444,2.086c-0.62,0.584 -1.35,1.037 -2.188,1.359c-0.838,0.323 -1.747,0.485 -2.728,0.485l-3.333,-0Zm-1.974,-0l0,-13.147l2.924,-0l-0,13.147l-2.924,-0Z" style="fill:#1886c8;fill-rule:nonzero;"/><rect x="97.025" y="41.496" width="2.924" height="13.147" style="fill:#1886c8;fill-rule:nonzero;"/><path d="M109.278,54.847c-0.981,0 -1.891,-0.17 -2.729,-0.512c-0.837,-0.341 -1.57,-0.822 -2.197,-1.443c-0.627,-0.621 -1.114,-1.344 -1.462,-2.169c-0.347,-0.826 -0.521,-1.717 -0.521,-2.673c-0,-0.955 0.174,-1.846 0.521,-2.672c0.348,-0.825 0.832,-1.542 1.453,-2.151c0.621,-0.608 1.35,-1.083 2.188,-1.424c0.838,-0.341 1.747,-0.512 2.728,-0.512c1.043,-0 1.971,0.167 2.784,0.503c0.813,0.335 1.524,0.794 2.132,1.378l-1.955,1.974c-0.348,-0.373 -0.767,-0.665 -1.257,-0.876c-0.491,-0.211 -1.059,-0.316 -1.704,-0.316c-0.571,-0 -1.096,0.096 -1.574,0.288c-0.478,0.193 -0.887,0.469 -1.229,0.829c-0.341,0.36 -0.608,0.795 -0.8,1.304c-0.193,0.509 -0.289,1.067 -0.289,1.675c0,0.621 0.096,1.186 0.289,1.695c0.192,0.509 0.459,0.944 0.8,1.304c0.342,0.36 0.751,0.639 1.229,0.838c0.478,0.198 1.003,0.298 1.574,0.298c0.67,-0 1.254,-0.106 1.75,-0.317c0.497,-0.211 0.925,-0.503 1.285,-0.875l1.974,1.974c-0.633,0.583 -1.356,1.042 -2.169,1.378c-0.813,0.335 -1.754,0.502 -2.821,0.502Z" style="fill:#1886c8;fill-rule:nonzero;"/><path d="M115.106,54.643l5.214,-13.147l2.644,-0l5.159,13.147l-3.091,-0l-3.948,-10.913l1.061,0l-4.004,10.913l-3.035,-0Zm2.961,-2.384l-0,-2.384l7.169,0l0,2.384l-7.169,-0Z" style="fill:#1886c8;fill-rule:nonzero;"/><path d="M130.078,54.643l-0,-13.147l2.924,-0l-0,13.147l-2.924,-0Zm2.253,-0l0,-2.57l6.499,-0l0,2.57l-6.499,-0Z" style="fill:#1886c8;fill-rule:nonzero;"/><path d="M151.433,54.643l-6.033,-6.63c-0.472,-0.521 -0.813,-1.015 -1.025,-1.48c-0.211,-0.466 -0.316,-0.978 -0.316,-1.536c-0,-0.671 0.171,-1.288 0.512,-1.853c0.341,-0.565 0.807,-1.018 1.397,-1.36c0.589,-0.341 1.275,-0.512 2.057,-0.512c0.609,0 1.149,0.09 1.62,0.27c0.472,0.18 0.882,0.41 1.229,0.689c0.348,0.28 0.615,0.574 0.801,0.885l-1.899,1.806c-0.249,-0.335 -0.506,-0.59 -0.773,-0.763c-0.267,-0.174 -0.58,-0.261 -0.94,-0.261c-0.373,-0 -0.68,0.108 -0.922,0.326c-0.242,0.217 -0.363,0.487 -0.363,0.81c-0,0.273 0.059,0.515 0.177,0.726c0.118,0.211 0.288,0.447 0.512,0.708l7.299,8.175l-3.333,-0Zm-4.32,0.204c-0.894,0 -1.673,-0.176 -2.337,-0.53c-0.664,-0.354 -1.18,-0.838 -1.546,-1.453c-0.366,-0.614 -0.549,-1.3 -0.549,-2.057c-0,-0.82 0.217,-1.549 0.652,-2.189c0.434,-0.639 1.086,-1.157 1.955,-1.554l1.21,1.843c-0.372,0.174 -0.651,0.404 -0.838,0.689c-0.186,0.286 -0.279,0.627 -0.279,1.024c0,0.323 0.071,0.605 0.214,0.848c0.143,0.242 0.351,0.431 0.624,0.568c0.273,0.136 0.596,0.204 0.968,0.204c0.422,0 0.786,-0.09 1.09,-0.27c0.304,-0.18 0.561,-0.431 0.773,-0.754l1.918,1.974c-0.211,0.273 -0.513,0.537 -0.904,0.791c-0.391,0.255 -0.838,0.463 -1.34,0.624c-0.503,0.162 -1.04,0.242 -1.611,0.242Z" style="fill:#1886c8;fill-rule:nonzero;"/><path d="M158.403,47.313l-1.784,-5.548l1.226,-0l1.304,4.267l-0.479,-0l1.273,-4.267l0.967,-0l1.273,4.267l-0.472,-0l1.297,-4.267l1.218,-0l-1.784,5.548l-0.966,-0l-1.281,-4.267l0.455,-0l-1.28,4.267l-0.967,-0Z" style="fill:#1886c8;fill-rule:nonzero;"/><path d="M165.13,47.313l-0,-5.548l1.234,-0l-0,5.548l-1.234,-0Zm3.434,-0l-0,-5.548l1.242,-0l-0,5.548l-1.242,-0Zm-2.695,-2.319l-0,-1.068l3.104,-0l-0,1.068l-3.104,0Z" style="fill:#1886c8;fill-rule:nonzero;"/><path d="M173.751,47.407c-0.42,0 -0.806,-0.073 -1.16,-0.22c-0.353,-0.147 -0.664,-0.351 -0.931,-0.613c-0.267,-0.262 -0.474,-0.567 -0.621,-0.915c-0.146,-0.349 -0.22,-0.725 -0.22,-1.128c0,-0.409 0.074,-0.786 0.22,-1.132c0.147,-0.346 0.351,-0.648 0.613,-0.907c0.262,-0.26 0.57,-0.462 0.924,-0.606c0.353,-0.144 0.74,-0.216 1.159,-0.216c0.414,0 0.797,0.072 1.151,0.216c0.354,0.144 0.663,0.346 0.927,0.606c0.265,0.259 0.471,0.563 0.617,0.911c0.147,0.349 0.22,0.727 0.22,1.136c0,0.403 -0.073,0.779 -0.22,1.127c-0.146,0.349 -0.351,0.653 -0.613,0.912c-0.262,0.259 -0.569,0.462 -0.923,0.609c-0.354,0.147 -0.735,0.22 -1.143,0.22Zm-0.016,-1.124c0.33,0 0.619,-0.073 0.868,-0.22c0.249,-0.146 0.442,-0.352 0.578,-0.617c0.136,-0.264 0.204,-0.569 0.204,-0.915c0,-0.262 -0.039,-0.499 -0.118,-0.711c-0.078,-0.213 -0.191,-0.396 -0.338,-0.55c-0.146,-0.155 -0.321,-0.273 -0.522,-0.354c-0.202,-0.081 -0.426,-0.122 -0.672,-0.122c-0.33,0 -0.62,0.072 -0.869,0.216c-0.248,0.144 -0.441,0.346 -0.577,0.605c-0.136,0.26 -0.204,0.565 -0.204,0.916c-0,0.262 0.039,0.5 0.117,0.715c0.079,0.215 0.19,0.399 0.334,0.554c0.145,0.155 0.319,0.274 0.523,0.358c0.204,0.083 0.43,0.125 0.676,0.125Z" style="fill:#1886c8;fill-rule:nonzero;"/><path d="M177.672,47.313l-0,-5.548l1.234,-0l-0,5.548l-1.234,-0Zm0.951,-0l-0,-1.085l2.742,0l0,1.085l-2.742,-0Z" style="fill:#1886c8;fill-rule:nonzero;"/><path d="M182.316,47.313l0,-5.548l1.234,-0l0,5.548l-1.234,-0Zm0.943,-0l0,-1.069l3.042,-0l-0,1.069l-3.042,-0Zm0,-2.319l0,-1.029l2.767,-0l-0,1.029l-2.767,0Zm0,-2.168l0,-1.061l3.002,-0l0,1.061l-3.002,-0Z" style="fill:#1886c8;fill-rule:nonzero;"/><path d="M188.91,47.399c-0.456,0 -0.848,-0.074 -1.175,-0.224c-0.328,-0.149 -0.628,-0.376 -0.9,-0.68l0.802,-0.793c0.178,0.204 0.375,0.363 0.593,0.475c0.217,0.113 0.47,0.169 0.758,0.169c0.262,0 0.465,-0.047 0.609,-0.141c0.144,-0.095 0.216,-0.226 0.216,-0.393c0,-0.152 -0.047,-0.275 -0.141,-0.37c-0.094,-0.094 -0.219,-0.175 -0.373,-0.243c-0.155,-0.068 -0.325,-0.134 -0.511,-0.197c-0.186,-0.063 -0.371,-0.135 -0.554,-0.216c-0.184,-0.081 -0.353,-0.183 -0.507,-0.306c-0.155,-0.123 -0.279,-0.278 -0.373,-0.464c-0.095,-0.186 -0.142,-0.42 -0.142,-0.703c0,-0.341 0.083,-0.634 0.248,-0.88c0.165,-0.247 0.394,-0.434 0.687,-0.562c0.294,-0.129 0.632,-0.193 1.014,-0.193c0.388,0 0.743,0.068 1.065,0.204c0.322,0.137 0.588,0.323 0.798,0.558l-0.802,0.794c-0.168,-0.173 -0.337,-0.301 -0.507,-0.385c-0.17,-0.084 -0.363,-0.126 -0.577,-0.126c-0.215,0 -0.386,0.041 -0.511,0.122c-0.126,0.081 -0.189,0.198 -0.189,0.35c0,0.141 0.047,0.255 0.142,0.342c0.094,0.086 0.218,0.161 0.373,0.224c0.154,0.063 0.325,0.125 0.511,0.188c0.186,0.063 0.37,0.136 0.554,0.22c0.183,0.084 0.352,0.19 0.507,0.319c0.154,0.128 0.279,0.29 0.373,0.487c0.094,0.196 0.141,0.439 0.141,0.727c0,0.529 -0.188,0.944 -0.566,1.245c-0.377,0.302 -0.898,0.452 -1.563,0.452Z" style="fill:#1886c8;fill-rule:nonzero;"/><path d="M191.487,47.313l2.201,-5.548l1.115,-0l2.177,5.548l-1.304,-0l-1.666,-4.605l0.448,-0l-1.69,4.605l-1.281,-0Zm1.25,-1.006l-0,-1.006l3.025,-0l0,1.006l-3.025,-0Z" style="fill:#1886c8;fill-rule:nonzero;"/><path d="M197.805,47.313l0,-5.548l1.234,-0l0,5.548l-1.234,-0Zm0.951,-0l0,-1.085l2.743,0l-0,1.085l-2.743,-0Z" style="fill:#1886c8;fill-rule:nonzero;"/><path d="M156.619,55.328l2.2,-5.548l1.116,0l2.177,5.548l-1.304,0l-1.666,-4.605l0.448,0l-1.69,4.605l-1.281,0Zm1.25,-1.005l-0,-1.006l3.025,-0l0,1.006l-3.025,-0Z" style="fill:#1886c8;fill-rule:nonzero;"/><path d="M165.256,55.415c-0.404,-0 -0.782,-0.073 -1.136,-0.22c-0.354,-0.147 -0.661,-0.35 -0.923,-0.609c-0.262,-0.26 -0.468,-0.563 -0.617,-0.912c-0.15,-0.348 -0.224,-0.724 -0.224,-1.127c-0,-0.404 0.076,-0.778 0.228,-1.124c0.152,-0.346 0.362,-0.649 0.632,-0.908c0.27,-0.259 0.586,-0.461 0.947,-0.605c0.362,-0.144 0.749,-0.216 1.163,-0.216c0.477,-0 0.911,0.086 1.301,0.259c0.39,0.173 0.714,0.411 0.97,0.715l-0.84,0.841c-0.179,-0.23 -0.388,-0.403 -0.629,-0.518c-0.241,-0.116 -0.514,-0.173 -0.817,-0.173c-0.325,-0 -0.616,0.072 -0.873,0.216c-0.256,0.144 -0.457,0.346 -0.601,0.605c-0.144,0.259 -0.216,0.562 -0.216,0.908c-0,0.345 0.071,0.649 0.212,0.911c0.142,0.262 0.335,0.466 0.582,0.613c0.246,0.147 0.529,0.22 0.848,0.22c0.325,0 0.602,-0.061 0.829,-0.185c0.228,-0.123 0.404,-0.301 0.527,-0.534c0.123,-0.233 0.185,-0.517 0.185,-0.853l0.817,0.55l-2.475,-0.039l-0,-1.045l2.915,0l0,0.181c0,0.665 -0.119,1.224 -0.358,1.678c-0.238,0.453 -0.568,0.795 -0.99,1.025c-0.421,0.231 -0.907,0.346 -1.457,0.346Z" style="fill:#1886c8;fill-rule:nonzero;"/><path d="M169.043,55.328l0,-5.548l1.234,0l0,5.548l-1.234,0Zm0.943,0l0,-1.068l3.042,-0l-0,1.068l-3.042,0Zm0,-2.318l0,-1.029l2.767,-0l-0,1.029l-2.767,0Zm0,-2.169l0,-1.061l3.002,0l0,1.061l-3.002,0Z" style="fill:#1886c8;fill-rule:nonzero;"/><path d="M174.112,55.328l0,-5.548l0.865,0l0.369,1.108l-0,4.44l-1.234,0Zm3.827,0l-3.269,-4.188l0.307,-1.36l3.269,4.189l-0.307,1.359Zm0,0l-0.33,-1.108l0,-4.44l1.234,0l-0,5.548l-0.904,0Z" style="fill:#1886c8;fill-rule:nonzero;"/><path d="M182.78,55.415c-0.414,-0 -0.798,-0.072 -1.151,-0.216c-0.354,-0.144 -0.663,-0.347 -0.928,-0.609c-0.264,-0.262 -0.47,-0.567 -0.616,-0.916c-0.147,-0.348 -0.221,-0.724 -0.221,-1.127c0,-0.404 0.074,-0.78 0.221,-1.128c0.146,-0.349 0.351,-0.651 0.612,-0.908c0.262,-0.257 0.57,-0.457 0.924,-0.601c0.353,-0.144 0.737,-0.216 1.151,-0.216c0.44,-0 0.832,0.071 1.175,0.212c0.343,0.141 0.643,0.335 0.9,0.582l-0.825,0.833c-0.147,-0.158 -0.324,-0.281 -0.531,-0.37c-0.207,-0.089 -0.446,-0.133 -0.719,-0.133c-0.241,-0 -0.462,0.04 -0.664,0.121c-0.202,0.082 -0.374,0.198 -0.519,0.35c-0.144,0.152 -0.256,0.335 -0.337,0.55c-0.082,0.215 -0.122,0.451 -0.122,0.708c-0,0.261 0.04,0.5 0.122,0.715c0.081,0.214 0.193,0.398 0.337,0.55c0.145,0.152 0.317,0.27 0.519,0.353c0.202,0.084 0.423,0.126 0.664,0.126c0.283,0 0.529,-0.044 0.739,-0.134c0.209,-0.089 0.39,-0.212 0.542,-0.369l0.833,0.833c-0.267,0.246 -0.572,0.44 -0.915,0.582c-0.344,0.141 -0.74,0.212 -1.191,0.212Z" style="fill:#1886c8;fill-rule:nonzero;"/><rect x="185.798" y="49.78" width="1.234" height="5.548" style="fill:#1886c8;fill-rule:nonzero;"/><path d="M188.336,55.328l-0,-5.548l1.234,0l-0,5.548l-1.234,0Zm0.943,0l-0,-1.068l3.041,-0l0,1.068l-3.041,0Zm-0,-2.318l-0,-1.029l2.766,-0l0,1.029l-2.766,0Zm-0,-2.169l-0,-1.061l3.002,0l-0,1.061l-3.002,0Z" style="fill:#1886c8;fill-rule:nonzero;"/><path d="M194.929,55.415c-0.456,-0 -0.847,-0.075 -1.175,-0.224c-0.327,-0.149 -0.627,-0.376 -0.899,-0.68l0.801,-0.794c0.178,0.205 0.376,0.363 0.593,0.476c0.218,0.112 0.471,0.169 0.759,0.169c0.262,-0 0.465,-0.047 0.609,-0.142c0.144,-0.094 0.216,-0.225 0.216,-0.393c-0,-0.151 -0.047,-0.275 -0.141,-0.369c-0.095,-0.094 -0.219,-0.175 -0.374,-0.244c-0.154,-0.068 -0.325,-0.133 -0.511,-0.196c-0.186,-0.063 -0.37,-0.135 -0.554,-0.216c-0.183,-0.081 -0.352,-0.183 -0.506,-0.307c-0.155,-0.123 -0.279,-0.277 -0.374,-0.463c-0.094,-0.186 -0.141,-0.421 -0.141,-0.704c-0,-0.34 0.082,-0.633 0.247,-0.88c0.165,-0.246 0.395,-0.433 0.688,-0.562c0.293,-0.128 0.631,-0.192 1.014,-0.192c0.387,-0 0.742,0.068 1.065,0.204c0.322,0.136 0.588,0.322 0.797,0.558l-0.801,0.794c-0.168,-0.173 -0.337,-0.301 -0.507,-0.385c-0.171,-0.084 -0.363,-0.126 -0.578,-0.126c-0.215,0 -0.385,0.041 -0.511,0.122c-0.125,0.081 -0.188,0.198 -0.188,0.35c-0,0.141 0.047,0.255 0.141,0.341c0.094,0.087 0.219,0.161 0.373,0.224c0.155,0.063 0.325,0.126 0.511,0.189c0.186,0.063 0.371,0.136 0.554,0.22c0.184,0.084 0.353,0.19 0.507,0.318c0.155,0.129 0.279,0.291 0.373,0.488c0.095,0.196 0.142,0.438 0.142,0.726c-0,0.53 -0.189,0.945 -0.566,1.246c-0.377,0.301 -0.898,0.452 -1.564,0.452Z" style="fill:#1886c8;fill-rule:nonzero;"/><path d="M202.45,47.313l-0,-5.548l1.234,-0l-0,5.548l-1.234,-0Zm0.943,-0l-0,-1.069l3.041,-0l0,1.069l-3.041,-0Zm-0,-2.319l-0,-1.029l2.766,-0l0,1.029l-2.766,0Zm-0,-2.168l-0,-1.061l3.002,-0l-0,1.061l-3.002,-0Z" style="fill:#1886c8;fill-rule:nonzero;"/></svg>