<?xml version="1.0" encoding="UTF-8" standalone="no"?><!DOCTYPE svg PUBLIC "-//W3C//DTD SVG 1.1//EN" "http://www.w3.org/Graphics/SVG/1.1/DTD/svg11.dtd"><svg width="100%" height="100%" viewBox="0 0 226 106" version="1.1" xmlns="http://www.w3.org/2000/svg" xmlns:xlink="http://www.w3.org/1999/xlink" xml:space="preserve" xmlns:serif="http://www.serif.com/" style="fill-rule:evenodd;clip-rule:evenodd;stroke-linejoin:round;stroke-miterlimit:2;"><rect id="nutan-medical-and-wholesale-agencies-logo" serif:id="nutan medical and wholesale agencies logo" x="0" y="0" width="225.505" height="105.444" style="fill:none;"/><g><path d="M208.143,47.48c-0,-7.692 -6.245,-13.937 -13.937,-13.937l-155.9,0c-7.692,0 -13.937,6.245 -13.937,13.937c0,7.692 6.245,13.937 13.937,13.937l155.9,-0c7.692,-0 13.937,-6.245 13.937,-13.937Z" style="fill:#f0f0f0;"/><g><path d="M65.865,30.663l-0,-6.768c-0,-1.014 -0.298,-1.835 -0.895,-2.465c-0.597,-0.629 -1.385,-0.944 -2.366,-0.944c-0.671,0 -1.259,0.148 -1.766,0.442c-0.507,0.294 -0.907,0.695 -1.201,1.201c-0.295,0.507 -0.442,1.087 -0.442,1.741l-0.784,-0.441c-0,-0.866 0.204,-1.643 0.613,-2.33c0.408,-0.686 0.96,-1.226 1.655,-1.618c0.695,-0.392 1.491,-0.588 2.391,-0.588c0.882,-0 1.667,0.212 2.354,0.637c0.686,0.425 1.222,0.997 1.606,1.717c0.384,0.719 0.576,1.504 0.576,2.354l-0,7.062l-1.741,-0Zm-8.386,-0l-0,-11.525l1.716,-0l0,11.525l-1.716,-0Z" style="fill:#0087ce;fill-rule:nonzero;"/><path d="M75.379,30.908c-0.932,-0 -1.765,-0.217 -2.501,-0.65c-0.736,-0.433 -1.312,-1.026 -1.729,-1.778c-0.417,-0.752 -0.625,-1.634 -0.625,-2.648l0,-6.694l1.741,-0l0,6.62c0,0.703 0.127,1.316 0.38,1.84c0.253,0.523 0.617,0.931 1.091,1.226c0.474,0.294 1.022,0.441 1.643,0.441c0.965,0 1.729,-0.319 2.293,-0.956c0.564,-0.638 0.846,-1.488 0.846,-2.551l-0,-6.62l1.716,-0l0,6.694c0,0.997 -0.204,1.88 -0.613,2.648c-0.408,0.769 -0.98,1.365 -1.716,1.79c-0.736,0.425 -1.578,0.638 -2.526,0.638Z" style="fill:#0087ce;fill-rule:nonzero;"/><path d="M85.237,30.663l-0,-16.38l1.716,-0l0,16.38l-1.716,-0Zm-2.918,-9.98l-0,-1.545l7.528,-0l-0,1.545l-7.528,-0Z" style="fill:#0087ce;fill-rule:nonzero;"/><path d="M96.786,30.908c-1.095,-0 -2.076,-0.266 -2.942,-0.797c-0.867,-0.531 -1.549,-1.246 -2.048,-2.146c-0.498,-0.899 -0.748,-1.912 -0.748,-3.04c0,-1.145 0.25,-2.17 0.748,-3.078c0.499,-0.907 1.181,-1.626 2.048,-2.158c0.866,-0.531 1.839,-0.796 2.918,-0.796c0.882,-0 1.671,0.175 2.366,0.527c0.695,0.351 1.259,0.842 1.692,1.471c0.433,0.629 0.699,1.361 0.797,2.195l-0,3.604c-0.098,0.834 -0.364,1.57 -0.797,2.207c-0.433,0.638 -0.997,1.132 -1.692,1.484c-0.695,0.351 -1.475,0.527 -2.342,0.527Zm0.27,-1.643c1.193,0 2.154,-0.4 2.881,-1.202c0.728,-0.801 1.091,-1.855 1.091,-3.163c0,-0.866 -0.167,-1.63 -0.502,-2.292c-0.335,-0.663 -0.801,-1.178 -1.398,-1.545c-0.597,-0.368 -1.296,-0.552 -2.097,-0.552c-0.817,-0 -1.54,0.188 -2.17,0.564c-0.629,0.376 -1.128,0.895 -1.496,1.557c-0.367,0.662 -0.551,1.418 -0.551,2.268c-0,0.85 0.184,1.602 0.551,2.256c0.368,0.654 0.871,1.169 1.509,1.545c0.637,0.376 1.365,0.564 2.182,0.564Zm3.874,1.398l0,-3.09l0.344,-2.844l-0.344,-2.771l0,-2.82l1.717,-0l-0,11.525l-1.717,-0Z" style="fill:#0087ce;fill-rule:nonzero;"/><path d="M114.515,30.663l0,-6.768c0,-1.014 -0.298,-1.835 -0.895,-2.465c-0.597,-0.629 -1.385,-0.944 -2.366,-0.944c-0.671,0 -1.259,0.148 -1.766,0.442c-0.507,0.294 -0.907,0.695 -1.201,1.201c-0.295,0.507 -0.442,1.087 -0.442,1.741l-0.784,-0.441c-0,-0.866 0.204,-1.643 0.613,-2.33c0.408,-0.686 0.96,-1.226 1.655,-1.618c0.695,-0.392 1.492,-0.588 2.391,-0.588c0.882,-0 1.667,0.212 2.354,0.637c0.686,0.425 1.222,0.997 1.606,1.717c0.384,0.719 0.576,1.504 0.576,2.354l0,7.062l-1.741,-0Zm-8.386,-0l-0,-11.525l1.716,-0l0,11.525l-1.716,-0Z" style="fill:#0087ce;fill-rule:nonzero;"/></g><g><path d="M57.479,58.846l-0,-21.776l3.454,-0l8.575,13.355l-1.758,0l8.544,-13.355l3.486,-0l-0,21.776l-4.843,0l0,-13.602l0.864,0.215l-5.583,8.699l-3.208,-0l-5.552,-8.699l0.833,-0.215l-0,13.602l-4.812,0Z" style="fill:#231f20;fill-rule:nonzero;"/><path d="M83.944,58.846l-0,-21.776l4.842,-0l0,21.776l-4.842,0Zm3.701,0l0,-4.195l11.937,0l0,4.195l-11.937,0Zm0,-9.099l0,-4.041l10.858,0l-0,4.041l-10.858,-0Zm0,-8.513l0,-4.164l11.783,-0l0,4.164l-11.783,-0Z" style="fill:#231f20;fill-rule:nonzero;"/><path d="M106.183,58.846l0,-4.256l5.398,-0c1.316,-0 2.468,-0.263 3.455,-0.787c0.987,-0.524 1.748,-1.29 2.282,-2.298c0.535,-1.008 0.802,-2.2 0.802,-3.578c0,-1.378 -0.272,-2.56 -0.817,-3.547c-0.545,-0.987 -1.306,-1.748 -2.283,-2.283c-0.977,-0.534 -2.123,-0.802 -3.439,-0.802l-5.552,0l-0,-4.225l5.614,-0c1.645,-0 3.161,0.262 4.549,0.786c1.388,0.524 2.602,1.275 3.64,2.252c1.038,0.977 1.84,2.128 2.406,3.454c0.565,1.327 0.848,2.792 0.848,4.396c0,1.583 -0.283,3.043 -0.848,4.38c-0.566,1.336 -1.362,2.488 -2.391,3.455c-1.028,0.966 -2.236,1.717 -3.624,2.251c-1.388,0.535 -2.894,0.802 -4.519,0.802l-5.521,0Zm-3.269,0l-0,-21.776l4.842,-0l0,21.776l-4.842,0Z" style="fill:#231f20;fill-rule:nonzero;"/><rect x="126.171" y="37.07" width="4.843" height="21.777" style="fill:#231f20;fill-rule:nonzero;"/><path d="M145.541,59.185c-1.624,0 -3.13,-0.282 -4.518,-0.848c-1.388,-0.565 -2.602,-1.362 -3.64,-2.39c-1.039,-1.028 -1.846,-2.226 -2.421,-3.594c-0.576,-1.367 -0.864,-2.843 -0.864,-4.426c-0,-1.583 0.288,-3.059 0.864,-4.426c0.575,-1.368 1.377,-2.555 2.405,-3.563c1.029,-1.007 2.237,-1.794 3.625,-2.359c1.388,-0.566 2.894,-0.849 4.519,-0.849c1.727,0 3.264,0.278 4.611,0.833c1.347,0.555 2.524,1.316 3.532,2.283l-3.239,3.269c-0.576,-0.617 -1.27,-1.1 -2.082,-1.45c-0.812,-0.349 -1.753,-0.524 -2.822,-0.524c-0.946,0 -1.815,0.159 -2.607,0.478c-0.792,0.319 -1.47,0.776 -2.036,1.373c-0.565,0.596 -1.007,1.316 -1.326,2.159c-0.319,0.843 -0.478,1.768 -0.478,2.776c-0,1.028 0.159,1.964 0.478,2.807c0.319,0.843 0.761,1.563 1.326,2.159c0.566,0.596 1.244,1.059 2.036,1.388c0.792,0.329 1.661,0.494 2.607,0.494c1.11,-0 2.076,-0.175 2.899,-0.525c0.823,-0.349 1.532,-0.833 2.128,-1.449l3.27,3.269c-1.049,0.967 -2.247,1.727 -3.594,2.283c-1.346,0.555 -2.904,0.832 -4.673,0.832Z" style="fill:#231f20;fill-rule:nonzero;"/><path d="M154.271,58.846l8.636,-21.776l4.38,-0l8.544,21.776l-5.12,0l-6.539,-18.075l1.758,-0l-6.632,18.075l-5.027,0Zm4.904,-3.948l-0,-3.948l11.875,-0l0,3.948l-11.875,0Z" style="fill:#231f20;fill-rule:nonzero;"/><path d="M178.145,58.846l-0,-21.776l4.842,-0l0,21.776l-4.842,0Zm3.732,0l-0,-4.256l10.765,-0l-0,4.256l-10.765,0Z" style="fill:#231f20;fill-rule:nonzero;"/></g><g><path d="M62.276,72.119l-3.799,-4.073c-0.297,-0.321 -0.519,-0.626 -0.664,-0.916c-0.145,-0.29 -0.217,-0.61 -0.217,-0.961c0,-0.404 0.095,-0.765 0.286,-1.081c0.191,-0.317 0.454,-0.569 0.79,-0.755c0.335,-0.187 0.721,-0.281 1.155,-0.281c0.321,0 0.613,0.052 0.876,0.155c0.263,0.103 0.496,0.238 0.698,0.406c0.202,0.168 0.372,0.358 0.509,0.572l-0.744,0.675c-0.175,-0.244 -0.368,-0.44 -0.578,-0.589c-0.21,-0.149 -0.463,-0.223 -0.761,-0.223c-0.343,-0 -0.629,0.103 -0.858,0.309c-0.229,0.206 -0.343,0.473 -0.343,0.801c-0,0.274 0.057,0.507 0.171,0.698c0.115,0.19 0.287,0.412 0.515,0.663l4.223,4.6l-1.259,0Zm-2.849,0.115c-0.527,-0 -0.988,-0.103 -1.385,-0.309c-0.396,-0.206 -0.703,-0.49 -0.921,-0.853c-0.217,-0.362 -0.326,-0.776 -0.326,-1.241c0,-0.481 0.13,-0.916 0.389,-1.305c0.259,-0.389 0.637,-0.698 1.133,-0.927l0.492,0.641c-0.305,0.153 -0.546,0.361 -0.721,0.624c-0.175,0.263 -0.263,0.578 -0.263,0.944c-0,0.297 0.069,0.553 0.206,0.767c0.137,0.213 0.33,0.379 0.578,0.497c0.248,0.119 0.532,0.178 0.852,0.178c0.404,-0 0.748,-0.084 1.03,-0.252c0.282,-0.168 0.496,-0.382 0.641,-0.641l0.675,0.79c-0.153,0.206 -0.353,0.391 -0.601,0.555c-0.248,0.164 -0.522,0.293 -0.824,0.389c-0.301,0.095 -0.62,0.143 -0.955,0.143Z" style="fill:#231f20;fill-rule:nonzero;"/><path d="M68.581,72.119l-2.598,-7.941l1.076,0l2.06,6.477l-0.309,-0l2.025,-6.477l0.778,0l2.026,6.477l-0.298,-0l2.06,-6.477l1.064,0l-2.586,7.941l-0.767,0l-2.037,-6.465l0.298,0l-2.025,6.465l-0.767,0Z" style="fill:#231f20;fill-rule:nonzero;"/><path d="M77.781,72.119l-0,-7.941l1.075,0l0,7.941l-1.075,0Zm5.126,0l0,-7.941l1.076,0l-0,7.941l-1.076,0Zm-4.394,-3.616l0,-0.984l4.657,0l0,0.984l-4.657,0Z" style="fill:#231f20;fill-rule:nonzero;"/><path d="M89.475,72.234c-0.564,-0 -1.091,-0.105 -1.579,-0.315c-0.488,-0.21 -0.915,-0.503 -1.282,-0.881c-0.366,-0.378 -0.65,-0.814 -0.852,-1.31c-0.202,-0.496 -0.303,-1.026 -0.303,-1.591c-0,-0.572 0.101,-1.104 0.303,-1.596c0.202,-0.492 0.484,-0.925 0.847,-1.299c0.362,-0.374 0.786,-0.663 1.27,-0.869c0.484,-0.206 1.009,-0.309 1.573,-0.309c0.565,-0 1.089,0.103 1.574,0.309c0.484,0.206 0.909,0.495 1.275,0.869c0.367,0.374 0.653,0.809 0.859,1.305c0.206,0.496 0.309,1.03 0.309,1.602c-0,0.564 -0.103,1.094 -0.309,1.59c-0.206,0.496 -0.49,0.931 -0.853,1.305c-0.362,0.373 -0.786,0.665 -1.27,0.875c-0.484,0.21 -1.005,0.315 -1.562,0.315Zm-0.023,-1.03c0.572,-0 1.074,-0.132 1.505,-0.395c0.431,-0.263 0.772,-0.625 1.024,-1.087c0.252,-0.461 0.378,-0.99 0.378,-1.585c-0,-0.442 -0.073,-0.848 -0.218,-1.218c-0.145,-0.37 -0.347,-0.693 -0.606,-0.967c-0.26,-0.275 -0.565,-0.487 -0.916,-0.635c-0.35,-0.149 -0.74,-0.223 -1.167,-0.223c-0.564,-0 -1.062,0.129 -1.493,0.389c-0.431,0.259 -0.77,0.617 -1.018,1.075c-0.248,0.458 -0.372,0.984 -0.372,1.579c-0,0.443 0.07,0.853 0.211,1.23c0.142,0.378 0.34,0.702 0.595,0.973c0.256,0.271 0.561,0.482 0.916,0.635c0.355,0.153 0.742,0.229 1.161,0.229Z" style="fill:#231f20;fill-rule:nonzero;"/><path d="M94.945,72.119l-0,-7.941l1.075,0l0,7.941l-1.075,0Zm0.732,0l0,-0.984l4.257,0l-0,0.984l-4.257,0Z" style="fill:#231f20;fill-rule:nonzero;"/><path d="M101.261,72.119l0,-7.941l1.076,0l-0,7.941l-1.076,0Zm0.732,0l0,-0.984l4.555,0l-0,0.984l-4.555,0Zm0,-3.593l0,-0.938l4.177,-0l-0,0.938l-4.177,0Zm0,-3.364l0,-0.984l4.497,0l0,0.984l-4.497,0Z" style="fill:#231f20;fill-rule:nonzero;"/><path d="M110.015,72.234c-0.626,-0 -1.16,-0.115 -1.602,-0.344c-0.443,-0.228 -0.836,-0.56 -1.179,-0.995l0.732,-0.732c0.252,0.35 0.542,0.616 0.87,0.795c0.328,0.179 0.732,0.269 1.213,0.269c0.473,-0 0.852,-0.103 1.139,-0.309c0.286,-0.206 0.429,-0.488 0.429,-0.847c-0,-0.297 -0.069,-0.538 -0.206,-0.721c-0.138,-0.183 -0.323,-0.334 -0.555,-0.452c-0.233,-0.118 -0.487,-0.225 -0.761,-0.32c-0.275,-0.096 -0.549,-0.199 -0.824,-0.309c-0.275,-0.111 -0.526,-0.248 -0.755,-0.412c-0.229,-0.164 -0.414,-0.38 -0.555,-0.647c-0.141,-0.267 -0.212,-0.602 -0.212,-1.007c0,-0.45 0.109,-0.833 0.326,-1.15c0.218,-0.316 0.515,-0.56 0.893,-0.732c0.377,-0.172 0.803,-0.257 1.276,-0.257c0.518,-0 0.984,0.101 1.396,0.303c0.411,0.202 0.747,0.467 1.006,0.795l-0.732,0.732c-0.236,-0.274 -0.49,-0.48 -0.761,-0.617c-0.271,-0.138 -0.581,-0.206 -0.932,-0.206c-0.428,-0 -0.767,0.093 -1.019,0.28c-0.252,0.187 -0.377,0.448 -0.377,0.784c-0,0.267 0.07,0.482 0.211,0.646c0.141,0.164 0.326,0.304 0.555,0.418c0.229,0.114 0.483,0.219 0.761,0.315c0.279,0.095 0.555,0.2 0.83,0.314c0.274,0.115 0.526,0.26 0.755,0.435c0.229,0.176 0.414,0.403 0.555,0.681c0.141,0.278 0.212,0.627 0.212,1.047c-0,0.702 -0.243,1.251 -0.727,1.648c-0.484,0.396 -1.138,0.595 -1.962,0.595Z" style="fill:#231f20;fill-rule:nonzero;"/><path d="M113.322,72.119l3.249,-7.941l0.778,0l3.239,7.941l-1.168,0l-2.666,-6.717l0.401,0l-2.689,6.717l-1.144,0Zm1.544,-1.796l0,-0.939l4.177,0l-0,0.939l-4.177,-0Z" style="fill:#231f20;fill-rule:nonzero;"/><path d="M121.778,72.119l-0,-7.941l1.075,0l0,7.941l-1.075,0Zm0.732,0l0,-0.984l4.257,0l-0,0.984l-4.257,0Z" style="fill:#231f20;fill-rule:nonzero;"/><path d="M128.094,72.119l0,-7.941l1.076,0l-0,7.941l-1.076,0Zm0.732,0l0,-0.984l4.554,0l0,0.984l-4.554,0Zm0,-3.593l0,-0.938l4.177,-0l-0,0.938l-4.177,0Zm0,-3.364l0,-0.984l4.497,0l0,0.984l-4.497,0Z" style="fill:#231f20;fill-rule:nonzero;"/><path d="M138.701,72.119l3.25,-7.941l0.778,0l3.238,7.941l-1.167,0l-2.666,-6.717l0.401,0l-2.689,6.717l-1.145,0Zm1.545,-1.796l0,-0.939l4.177,0l-0,0.939l-4.177,-0Z" style="fill:#231f20;fill-rule:nonzero;"/><path d="M150.247,72.234c-0.557,-0 -1.078,-0.105 -1.562,-0.315c-0.484,-0.21 -0.908,-0.502 -1.27,-0.875c-0.362,-0.374 -0.647,-0.809 -0.853,-1.305c-0.206,-0.496 -0.309,-1.03 -0.309,-1.602c0,-0.572 0.103,-1.104 0.309,-1.596c0.206,-0.492 0.492,-0.925 0.859,-1.299c0.366,-0.374 0.795,-0.663 1.287,-0.869c0.492,-0.206 1.028,-0.309 1.608,-0.309c0.633,-0 1.216,0.122 1.75,0.366c0.534,0.244 0.981,0.595 1.339,1.053l-0.744,0.743c-0.251,-0.366 -0.583,-0.646 -0.995,-0.841c-0.412,-0.194 -0.862,-0.291 -1.35,-0.291c-0.58,-0 -1.093,0.129 -1.539,0.389c-0.447,0.259 -0.794,0.617 -1.042,1.075c-0.248,0.458 -0.372,0.984 -0.372,1.579c0,0.603 0.126,1.133 0.378,1.591c0.252,0.457 0.591,0.816 1.018,1.075c0.428,0.26 0.916,0.389 1.465,0.389c0.557,0 1.039,-0.106 1.448,-0.32c0.408,-0.214 0.722,-0.528 0.944,-0.944c0.221,-0.416 0.331,-0.925 0.331,-1.528l0.653,0.47l-3.433,-0l-0,-0.984l3.89,-0l0,0.16c0,0.923 -0.162,1.695 -0.486,2.317c-0.324,0.622 -0.774,1.089 -1.35,1.402c-0.576,0.312 -1.234,0.469 -1.974,0.469Z" style="fill:#231f20;fill-rule:nonzero;"/><path d="M155.499,72.119l0,-7.941l1.076,0l-0,7.941l-1.076,0Zm0.732,0l0,-0.984l4.555,0l-0,0.984l-4.555,0Zm0,-3.593l0,-0.938l4.177,-0l-0,0.938l-4.177,0Zm0,-3.364l0,-0.984l4.497,0l0,0.984l-4.497,0Z" style="fill:#231f20;fill-rule:nonzero;"/><path d="M162.25,72.119l0,-7.941l0.755,0l0.321,1.247l-0,6.694l-1.076,0Zm5.493,0l-4.875,-6.511l0.137,-1.43l4.886,6.5l-0.148,1.441Zm-0,0l-0.321,-1.178l0,-6.763l1.076,0l-0,7.941l-0.755,0Z" style="fill:#231f20;fill-rule:nonzero;"/><path d="M173.979,72.234c-0.572,-0 -1.102,-0.105 -1.591,-0.315c-0.488,-0.21 -0.913,-0.502 -1.275,-0.875c-0.363,-0.374 -0.643,-0.809 -0.841,-1.305c-0.199,-0.496 -0.298,-1.026 -0.298,-1.59c0,-0.572 0.099,-1.106 0.298,-1.602c0.198,-0.496 0.478,-0.929 0.841,-1.299c0.362,-0.37 0.785,-0.66 1.27,-0.87c0.484,-0.209 1.012,-0.314 1.584,-0.314c0.626,-0 1.175,0.106 1.648,0.32c0.473,0.214 0.893,0.504 1.259,0.87l-0.744,0.743c-0.252,-0.282 -0.559,-0.503 -0.921,-0.663c-0.362,-0.16 -0.776,-0.24 -1.242,-0.24c-0.419,-0 -0.804,0.074 -1.155,0.223c-0.351,0.148 -0.656,0.36 -0.916,0.635c-0.259,0.274 -0.459,0.599 -0.6,0.972c-0.142,0.374 -0.212,0.782 -0.212,1.225c-0,0.442 0.07,0.85 0.212,1.224c0.141,0.374 0.341,0.698 0.6,0.973c0.26,0.274 0.565,0.486 0.916,0.635c0.351,0.148 0.736,0.223 1.155,0.223c0.496,-0 0.927,-0.082 1.293,-0.246c0.367,-0.164 0.676,-0.387 0.927,-0.67l0.744,0.733c-0.366,0.381 -0.795,0.679 -1.287,0.892c-0.492,0.214 -1.047,0.321 -1.665,0.321Z" style="fill:#231f20;fill-rule:nonzero;"/><rect x="178.247" y="64.178" width="1.076" height="7.941" style="fill:#231f20;fill-rule:nonzero;"/><path d="M181.199,72.119l0,-7.941l1.076,0l-0,7.941l-1.076,0Zm0.733,0l-0,-0.984l4.554,0l-0,0.984l-4.554,0Zm-0,-3.593l-0,-0.938l4.176,-0l0,0.938l-4.176,0Zm-0,-3.364l-0,-0.984l4.496,0l0,0.984l-4.496,0Z" style="fill:#231f20;fill-rule:nonzero;"/><path d="M189.953,72.234c-0.626,-0 -1.16,-0.115 -1.602,-0.344c-0.443,-0.228 -0.835,-0.56 -1.179,-0.995l0.733,-0.732c0.251,0.35 0.541,0.616 0.869,0.795c0.328,0.179 0.733,0.269 1.213,0.269c0.473,-0 0.853,-0.103 1.139,-0.309c0.286,-0.206 0.429,-0.488 0.429,-0.847c-0,-0.297 -0.069,-0.538 -0.206,-0.721c-0.137,-0.183 -0.322,-0.334 -0.555,-0.452c-0.233,-0.118 -0.486,-0.225 -0.761,-0.32c-0.275,-0.096 -0.549,-0.199 -0.824,-0.309c-0.275,-0.111 -0.526,-0.248 -0.755,-0.412c-0.229,-0.164 -0.414,-0.38 -0.555,-0.647c-0.141,-0.267 -0.212,-0.602 -0.212,-1.007c0,-0.45 0.109,-0.833 0.326,-1.15c0.218,-0.316 0.515,-0.56 0.893,-0.732c0.377,-0.172 0.803,-0.257 1.276,-0.257c0.518,-0 0.984,0.101 1.396,0.303c0.412,0.202 0.747,0.467 1.007,0.795l-0.733,0.732c-0.236,-0.274 -0.49,-0.48 -0.761,-0.617c-0.27,-0.138 -0.581,-0.206 -0.932,-0.206c-0.427,-0 -0.767,0.093 -1.019,0.28c-0.251,0.187 -0.377,0.448 -0.377,0.784c-0,0.267 0.07,0.482 0.211,0.646c0.142,0.164 0.327,0.304 0.555,0.418c0.229,0.114 0.483,0.219 0.761,0.315c0.279,0.095 0.555,0.2 0.83,0.314c0.275,0.115 0.526,0.26 0.755,0.435c0.229,0.176 0.414,0.403 0.555,0.681c0.141,0.278 0.212,0.627 0.212,1.047c-0,0.702 -0.242,1.251 -0.727,1.648c-0.484,0.396 -1.138,0.595 -1.962,0.595Z" style="fill:#231f20;fill-rule:nonzero;"/></g><g><circle cx="31.796" cy="47.48" r="13.937" style="fill:#ff3900;"/><text x="22.327px" y="58.765px" style="font-family:'Outfit-Bold', 'Outfit';font-weight:700;font-size:33.636px;fill:#fff;">+</text></g></g></svg>