<?xml version="1.0" encoding="UTF-8" standalone="no"?><!DOCTYPE svg PUBLIC "-//W3C//DTD SVG 1.1//EN" "http://www.w3.org/Graphics/SVG/1.1/DTD/svg11.dtd"><svg width="100%" height="100%" viewBox="0 0 226 106" version="1.1" xmlns="http://www.w3.org/2000/svg" xmlns:xlink="http://www.w3.org/1999/xlink" xml:space="preserve" xmlns:serif="http://www.serif.com/" style="fill-rule:evenodd;clip-rule:evenodd;stroke-linejoin:round;stroke-miterlimit:2;"><rect id="nutan-medical-and-wholesale-agencies-logo" serif:id="nutan medical and wholesale agencies logo" x="0" y="-0" width="225.505" height="105.444" style="fill:none;"/><g><path d="M57.263,45.253c1.41,-2.302 2.496,-4.08 2.886,-4.718l-0,-3.551c-0.494,0.848 -1.688,2.899 -3.185,5.469l0.134,2.373l0.165,0.427Z" style="fill:#f53440;fill-rule:nonzero;"/><path d="M45.731,61.443c-1.013,1.454 -2.67,1.454 -3.093,-0.502c-0.579,-2.679 -3.533,-22.113 -3.742,-24.023c-0.214,-1.971 -1.802,-2.011 -2.612,-0.947l-17.58,23.978c0,-0.013 -0.009,0.084 -0.022,0.247l0,3.218c2.172,-3.053 15.749,-22.148 16.698,-23.566c1.113,-1.663 2.569,-1.546 2.846,-0.394c0.28,1.156 3.221,17.313 4.174,23.088c0.34,2.044 2.232,2.72 3.414,1.15c0.617,-0.82 5.302,-8.414 9.181,-14.736l-0.804,-1.758c-3.702,6.331 -7.81,13.313 -8.46,14.245" style="fill:#f53440;fill-rule:nonzero;"/><path d="M44.92,67.753c-1.014,1.454 -2.67,1.454 -3.093,-0.502c-0.579,-2.679 -3.533,-22.113 -3.742,-24.023c-0.214,-1.971 -1.802,-2.011 -2.613,-0.947l-16.791,22.904l0,3.398c3.63,-5.103 15.023,-21.13 15.888,-22.425c1.113,-1.663 2.568,-1.546 2.846,-0.394c0.28,1.156 3.22,17.313 4.174,23.088c0.339,2.044 2.231,2.72 3.414,1.15c0.709,-0.943 7.099,-11.216 11.348,-18.073l-0.841,-1.844c-4.218,7.126 -9.839,16.591 -10.59,17.668" style="fill:#0082ca;fill-rule:nonzero;"/><path d="M59.684,46.548c0.298,-0.481 0.465,-0.752 0.465,-0.752l-0,-3.563c-0.282,0.473 -1.198,2.028 -2.447,4.145l0.332,0.855l1.65,-0.685Z" style="fill:#0082ca;fill-rule:nonzero;"/><path d="M56.7,39.048c-0.02,-1.571 -0.11,-4.269 -1.273,-4.458c-1.161,-0.188 -1.758,1.753 -1.901,4.299c-0.143,2.546 0.218,6.212 0.83,6.271c0.227,0.022 0.459,-0.167 0.681,-0.482c0.104,-0.115 0.2,-0.227 0.291,-0.339l0.951,-1.549c0.397,-0.991 0.441,-2.077 0.421,-3.742" style="fill:#0082ca;fill-rule:nonzero;"/><path d="M55.329,44.339c0.44,-0.537 0.744,-1.031 0.951,-1.548l-0.951,1.548Z" style="fill:#0082ca;fill-rule:nonzero;"/><path d="M61.205,46.547c-2.137,1.676 -2.967,2.515 -3.346,4.824c-0.106,0.37 -0.108,0.669 0.053,0.832c0.427,0.441 3.511,-1.575 5.405,-3.282c1.895,-1.707 3.033,-3.39 2.161,-4.174c-0.879,-0.788 -3.037,0.831 -4.273,1.8" style="fill:#f53440;fill-rule:nonzero;"/></g><g><path d="M71.737,64.077l0,-28.479l5.6,0l2.4,6l-0,22.479l-8,0Zm19.599,0l-16.519,-20.759l2.52,-7.72l16.519,20.759l-2.52,7.72Zm0,0l-2,-6.32l0,-22.159l8,0l0,28.479l-6,0Z" style="fill:#ef3742;fill-rule:nonzero;"/><path d="M114.015,64.557c-2.506,0 -4.693,-0.513 -6.559,-1.54c-1.867,-1.026 -3.32,-2.446 -4.36,-4.26c-1.04,-1.813 -1.56,-3.893 -1.56,-6.239l-0,-16.92l8,0l-0,17.64c-0,0.906 0.2,1.68 0.6,2.319c0.4,0.64 0.94,1.127 1.62,1.46c0.68,0.334 1.433,0.5 2.259,0.5c0.854,0 1.607,-0.166 2.26,-0.5c0.654,-0.333 1.167,-0.813 1.54,-1.44c0.374,-0.626 0.56,-1.393 0.56,-2.299l0,-17.68l8.04,0l-0,16.96c-0,2.346 -0.513,4.419 -1.54,6.219c-1.027,1.8 -2.467,3.214 -4.32,4.24c-1.853,1.027 -4.033,1.54 -6.54,1.54Z" style="fill:#ef3742;fill-rule:nonzero;"/><path d="M137.415,64.077l-0,-28.479l7.999,0l0,28.479l-7.999,0Zm-8.52,-21.679l-0,-6.8l25.079,0l-0,6.8l-25.079,0Z" style="fill:#ef3742;fill-rule:nonzero;"/><path d="M151.734,64.077l10.84,-28.479l8.159,0l10.72,28.479l-8.32,0l-7.96,-24.199l2.88,0l-8.159,24.199l-8.16,0Zm7.04,-4.8l-0,-6.239l15.919,-0l0,6.239l-15.919,0Z" style="fill:#ef3742;fill-rule:nonzero;"/><path d="M183.733,64.077l-0,-28.479l5.599,0l2.4,6l0,22.479l-7.999,0Zm19.599,0l-16.519,-20.759l2.519,-7.72l16.52,20.759l-2.52,7.72Zm-0,0l-2,-6.32l-0,-22.159l8,0l-0,28.479l-6,0Z" style="fill:#ef3742;fill-rule:nonzero;"/></g><g><path d="M71.737,73.271l0,-5.548l0.88,-0l2.185,3.402l-0.448,0l2.177,-3.402l0.888,-0l-0,5.548l-1.234,-0l0,-3.466l0.22,0.055l-1.422,2.216l-0.818,0l-1.414,-2.216l0.212,-0.055l0,3.466l-1.226,-0Z" style="fill:#1886c8;fill-rule:nonzero;"/><path d="M78.716,73.271l-0,-5.548l1.233,-0l0,5.548l-1.233,-0Zm0.943,-0l-0,-1.069l3.041,0l-0,1.069l-3.041,-0Zm-0,-2.318l-0,-1.03l2.766,0l-0,1.03l-2.766,-0Zm-0,-2.169l-0,-1.061l3.001,-0l0,1.061l-3.001,-0Z" style="fill:#1886c8;fill-rule:nonzero;"/><path d="M84.617,73.271l0,-1.085l1.375,0c0.336,0 0.629,-0.066 0.881,-0.2c0.251,-0.134 0.445,-0.329 0.581,-0.586c0.136,-0.256 0.204,-0.56 0.204,-0.911c0,-0.351 -0.069,-0.652 -0.208,-0.904c-0.139,-0.251 -0.332,-0.445 -0.581,-0.581c-0.249,-0.137 -0.541,-0.205 -0.877,-0.205l-1.414,0l-0,-1.076l1.43,-0c0.419,-0 0.806,0.066 1.159,0.2c0.354,0.134 0.663,0.325 0.928,0.574c0.264,0.249 0.469,0.542 0.613,0.88c0.144,0.338 0.216,0.711 0.216,1.12c-0,0.403 -0.072,0.775 -0.216,1.116c-0.144,0.34 -0.347,0.634 -0.609,0.88c-0.262,0.246 -0.57,0.437 -0.924,0.573c-0.353,0.137 -0.737,0.205 -1.151,0.205l-1.407,-0Zm-0.833,-0l0,-5.548l1.234,-0l0,5.548l-1.234,-0Z" style="fill:#1886c8;fill-rule:nonzero;"/><rect x="89.945" y="67.723" width="1.234" height="5.548" style="fill:#1886c8;fill-rule:nonzero;"/><path d="M95.116,73.357c-0.414,0 -0.797,-0.072 -1.151,-0.216c-0.354,-0.144 -0.663,-0.347 -0.927,-0.609c-0.265,-0.262 -0.471,-0.567 -0.617,-0.915c-0.147,-0.349 -0.22,-0.725 -0.22,-1.128c-0,-0.404 0.073,-0.779 0.22,-1.128c0.146,-0.348 0.351,-0.651 0.613,-0.907c0.262,-0.257 0.569,-0.458 0.923,-0.602c0.354,-0.144 0.737,-0.216 1.151,-0.216c0.44,0 0.832,0.071 1.175,0.212c0.343,0.142 0.643,0.336 0.9,0.582l-0.825,0.833c-0.147,-0.157 -0.324,-0.28 -0.531,-0.369c-0.207,-0.089 -0.446,-0.134 -0.719,-0.134c-0.241,-0 -0.462,0.041 -0.664,0.122c-0.201,0.081 -0.374,0.198 -0.518,0.35c-0.144,0.151 -0.257,0.335 -0.338,0.55c-0.081,0.214 -0.122,0.45 -0.122,0.707c-0,0.262 0.041,0.5 0.122,0.715c0.081,0.215 0.194,0.398 0.338,0.55c0.144,0.152 0.317,0.27 0.518,0.354c0.202,0.084 0.423,0.125 0.664,0.125c0.283,0 0.529,-0.044 0.739,-0.133c0.21,-0.089 0.39,-0.212 0.542,-0.369l0.833,0.833c-0.267,0.246 -0.572,0.44 -0.915,0.581c-0.343,0.141 -0.74,0.212 -1.191,0.212Z" style="fill:#1886c8;fill-rule:nonzero;"/><path d="M97.576,73.271l2.2,-5.548l1.116,-0l2.177,5.548l-1.304,-0l-1.666,-4.605l0.447,-0l-1.689,4.605l-1.281,-0Zm1.249,-1.006l0,-1.006l3.026,0l-0,1.006l-3.026,-0Z" style="fill:#1886c8;fill-rule:nonzero;"/><path d="M103.894,73.271l0,-5.548l1.234,-0l-0,5.548l-1.234,-0Zm0.951,-0l0,-1.085l2.743,0l-0,1.085l-2.743,-0Z" style="fill:#1886c8;fill-rule:nonzero;"/><path d="M113.67,73.271l-2.546,-2.798c-0.199,-0.22 -0.343,-0.428 -0.432,-0.625c-0.089,-0.196 -0.134,-0.412 -0.134,-0.648c0,-0.283 0.072,-0.543 0.216,-0.782c0.144,-0.238 0.341,-0.429 0.59,-0.574c0.249,-0.144 0.538,-0.216 0.868,-0.216c0.257,0 0.485,0.038 0.684,0.114c0.199,0.076 0.372,0.173 0.518,0.291c0.147,0.118 0.26,0.242 0.338,0.373l-0.801,0.763c-0.105,-0.142 -0.214,-0.249 -0.326,-0.323c-0.113,-0.073 -0.245,-0.11 -0.397,-0.11c-0.157,0 -0.287,0.046 -0.389,0.138c-0.102,0.092 -0.153,0.206 -0.153,0.342c-0,0.115 0.024,0.217 0.074,0.306c0.05,0.089 0.122,0.189 0.216,0.299l3.081,3.45l-1.407,-0Zm-1.823,0.086c-0.377,0 -0.706,-0.074 -0.986,-0.224c-0.281,-0.149 -0.498,-0.353 -0.653,-0.613c-0.154,-0.259 -0.231,-0.548 -0.231,-0.868c-0,-0.346 0.091,-0.654 0.275,-0.923c0.183,-0.27 0.458,-0.489 0.825,-0.657l0.511,0.778c-0.158,0.074 -0.275,0.171 -0.354,0.291c-0.079,0.121 -0.118,0.265 -0.118,0.432c0,0.137 0.03,0.256 0.09,0.358c0.061,0.102 0.148,0.182 0.264,0.24c0.115,0.057 0.251,0.086 0.408,0.086c0.179,0 0.332,-0.038 0.46,-0.114c0.128,-0.076 0.237,-0.182 0.326,-0.318l0.81,0.833c-0.089,0.115 -0.216,0.226 -0.381,0.334c-0.165,0.107 -0.354,0.195 -0.566,0.263c-0.212,0.068 -0.439,0.102 -0.68,0.102Z" style="fill:#1886c8;fill-rule:nonzero;"/><path d="M118.684,73.271l-1.784,-5.548l1.226,-0l1.304,4.267l-0.479,-0l1.273,-4.267l0.967,-0l1.273,4.267l-0.472,-0l1.297,-4.267l1.218,-0l-1.784,5.548l-0.966,-0l-1.281,-4.267l0.455,-0l-1.281,4.267l-0.966,-0Z" style="fill:#1886c8;fill-rule:nonzero;"/><path d="M125.411,73.271l-0,-5.548l1.234,-0l-0,5.548l-1.234,-0Zm3.434,-0l-0,-5.548l1.242,-0l-0,5.548l-1.242,-0Zm-2.696,-2.318l0,-1.069l3.105,-0l-0,1.069l-3.105,-0Z" style="fill:#1886c8;fill-rule:nonzero;"/><path d="M134.032,73.365c-0.42,0 -0.806,-0.073 -1.16,-0.22c-0.353,-0.147 -0.664,-0.351 -0.931,-0.613c-0.267,-0.262 -0.474,-0.567 -0.621,-0.915c-0.146,-0.349 -0.22,-0.725 -0.22,-1.128c0,-0.409 0.074,-0.786 0.22,-1.132c0.147,-0.346 0.351,-0.648 0.613,-0.907c0.262,-0.26 0.57,-0.461 0.924,-0.606c0.353,-0.144 0.74,-0.216 1.159,-0.216c0.414,0 0.797,0.072 1.151,0.216c0.354,0.145 0.663,0.346 0.927,0.606c0.265,0.259 0.471,0.563 0.617,0.911c0.147,0.349 0.22,0.727 0.22,1.136c0,0.403 -0.073,0.779 -0.22,1.127c-0.146,0.349 -0.351,0.653 -0.613,0.912c-0.262,0.259 -0.569,0.462 -0.923,0.609c-0.354,0.147 -0.735,0.22 -1.143,0.22Zm-0.016,-1.124c0.33,0 0.619,-0.073 0.868,-0.22c0.249,-0.146 0.442,-0.352 0.578,-0.617c0.136,-0.264 0.204,-0.569 0.204,-0.915c0,-0.262 -0.039,-0.499 -0.118,-0.711c-0.078,-0.213 -0.191,-0.396 -0.338,-0.55c-0.146,-0.155 -0.321,-0.273 -0.522,-0.354c-0.202,-0.081 -0.426,-0.122 -0.672,-0.122c-0.33,0 -0.62,0.072 -0.869,0.216c-0.248,0.144 -0.441,0.346 -0.577,0.605c-0.136,0.26 -0.204,0.565 -0.204,0.916c-0,0.262 0.039,0.5 0.117,0.715c0.079,0.215 0.19,0.399 0.334,0.554c0.144,0.155 0.319,0.274 0.523,0.358c0.204,0.083 0.43,0.125 0.676,0.125Z" style="fill:#1886c8;fill-rule:nonzero;"/><path d="M137.953,73.271l-0,-5.548l1.234,-0l-0,5.548l-1.234,-0Zm0.951,-0l-0,-1.085l2.742,0l0,1.085l-2.742,-0Z" style="fill:#1886c8;fill-rule:nonzero;"/><path d="M142.597,73.271l0,-5.548l1.234,-0l0,5.548l-1.234,-0Zm0.943,-0l0,-1.069l3.042,0l-0,1.069l-3.042,-0Zm0,-2.318l0,-1.03l2.766,0l0,1.03l-2.766,-0Zm0,-2.169l0,-1.061l3.002,-0l0,1.061l-3.002,-0Z" style="fill:#1886c8;fill-rule:nonzero;"/><path d="M149.191,73.357c-0.456,0 -0.848,-0.074 -1.175,-0.224c-0.328,-0.149 -0.628,-0.376 -0.9,-0.68l0.801,-0.793c0.179,0.204 0.376,0.363 0.594,0.475c0.217,0.113 0.47,0.169 0.758,0.169c0.262,0 0.465,-0.047 0.609,-0.141c0.144,-0.095 0.216,-0.226 0.216,-0.393c0,-0.152 -0.047,-0.275 -0.141,-0.37c-0.094,-0.094 -0.219,-0.175 -0.373,-0.243c-0.155,-0.068 -0.325,-0.134 -0.511,-0.197c-0.186,-0.062 -0.371,-0.135 -0.554,-0.216c-0.184,-0.081 -0.353,-0.183 -0.507,-0.306c-0.155,-0.123 -0.279,-0.278 -0.373,-0.464c-0.095,-0.186 -0.142,-0.42 -0.142,-0.703c0,-0.341 0.083,-0.634 0.248,-0.88c0.165,-0.247 0.394,-0.434 0.687,-0.562c0.294,-0.129 0.632,-0.193 1.014,-0.193c0.388,0 0.743,0.068 1.065,0.205c0.322,0.136 0.588,0.322 0.797,0.558l-0.801,0.793c-0.168,-0.173 -0.337,-0.301 -0.507,-0.385c-0.17,-0.084 -0.363,-0.126 -0.578,-0.126c-0.214,0 -0.385,0.041 -0.51,0.122c-0.126,0.081 -0.189,0.198 -0.189,0.35c0,0.141 0.047,0.255 0.141,0.342c0.095,0.086 0.219,0.161 0.374,0.224c0.154,0.063 0.325,0.125 0.511,0.188c0.186,0.063 0.37,0.137 0.554,0.22c0.183,0.084 0.352,0.19 0.506,0.319c0.155,0.128 0.279,0.29 0.374,0.487c0.094,0.196 0.141,0.439 0.141,0.727c0,0.529 -0.188,0.944 -0.566,1.245c-0.377,0.302 -0.898,0.452 -1.563,0.452Z" style="fill:#1886c8;fill-rule:nonzero;"/><path d="M151.768,73.271l2.201,-5.548l1.115,-0l2.177,5.548l-1.304,-0l-1.666,-4.605l0.448,-0l-1.69,4.605l-1.281,-0Zm1.25,-1.006l-0,-1.006l3.025,0l0,1.006l-3.025,-0Z" style="fill:#1886c8;fill-rule:nonzero;"/><path d="M158.086,73.271l0,-5.548l1.234,-0l0,5.548l-1.234,-0Zm0.951,-0l0,-1.085l2.743,0l-0,1.085l-2.743,-0Z" style="fill:#1886c8;fill-rule:nonzero;"/><path d="M162.731,73.271l-0,-5.548l1.234,-0l-0,5.548l-1.234,-0Zm0.943,-0l-0,-1.069l3.041,0l0,1.069l-3.041,-0Zm-0,-2.318l-0,-1.03l2.766,0l-0,1.03l-2.766,-0Zm-0,-2.169l-0,-1.061l3.002,-0l-0,1.061l-3.002,-0Z" style="fill:#1886c8;fill-rule:nonzero;"/><path d="M168.892,73.271l2.2,-5.548l1.116,-0l2.177,5.548l-1.305,-0l-1.666,-4.605l0.448,-0l-1.689,4.605l-1.281,-0Zm1.249,-1.006l0,-1.006l3.026,0l-0,1.006l-3.026,-0Z" style="fill:#1886c8;fill-rule:nonzero;"/><path d="M177.528,73.357c-0.403,0 -0.782,-0.073 -1.135,-0.22c-0.354,-0.147 -0.662,-0.35 -0.924,-0.609c-0.262,-0.259 -0.467,-0.563 -0.617,-0.911c-0.149,-0.349 -0.223,-0.725 -0.223,-1.128c-0,-0.404 0.075,-0.778 0.227,-1.124c0.152,-0.346 0.363,-0.648 0.633,-0.908c0.27,-0.259 0.585,-0.461 0.947,-0.605c0.361,-0.144 0.749,-0.216 1.163,-0.216c0.477,0 0.91,0.087 1.301,0.26c0.39,0.172 0.713,0.411 0.97,0.715l-0.841,0.841c-0.178,-0.231 -0.387,-0.404 -0.628,-0.519c-0.241,-0.115 -0.514,-0.173 -0.818,-0.173c-0.325,-0 -0.615,0.072 -0.872,0.216c-0.257,0.144 -0.457,0.346 -0.601,0.605c-0.144,0.26 -0.216,0.562 -0.216,0.908c-0,0.346 0.07,0.65 0.212,0.911c0.141,0.262 0.335,0.467 0.581,0.613c0.247,0.147 0.53,0.22 0.849,0.22c0.325,0 0.601,-0.061 0.829,-0.184c0.228,-0.123 0.404,-0.301 0.527,-0.535c0.123,-0.233 0.184,-0.517 0.184,-0.852l0.818,0.55l-2.476,-0.039l0,-1.046l2.916,0l-0,0.181c-0,0.665 -0.119,1.225 -0.358,1.678c-0.238,0.453 -0.568,0.795 -0.99,1.025c-0.422,0.231 -0.908,0.346 -1.458,0.346Z" style="fill:#1886c8;fill-rule:nonzero;"/><path d="M181.316,73.271l0,-5.548l1.234,-0l-0,5.548l-1.234,-0Zm0.943,-0l0,-1.069l3.041,0l0,1.069l-3.041,-0Zm0,-2.318l0,-1.03l2.766,0l0,1.03l-2.766,-0Zm0,-2.169l0,-1.061l3.002,-0l0,1.061l-3.002,-0Z" style="fill:#1886c8;fill-rule:nonzero;"/><path d="M186.385,73.271l-0,-5.548l0.864,-0l0.37,1.108l-0,4.44l-1.234,-0Zm3.827,-0l-3.269,-4.189l0.306,-1.359l3.269,4.188l-0.306,1.36Zm-0,-0l-0.33,-1.108l-0,-4.44l1.234,-0l-0,5.548l-0.904,-0Z" style="fill:#1886c8;fill-rule:nonzero;"/><path d="M195.053,73.357c-0.414,0 -0.798,-0.072 -1.152,-0.216c-0.353,-0.144 -0.662,-0.347 -0.927,-0.609c-0.264,-0.262 -0.47,-0.567 -0.617,-0.915c-0.146,-0.349 -0.22,-0.725 -0.22,-1.128c0,-0.404 0.074,-0.779 0.22,-1.128c0.147,-0.348 0.351,-0.651 0.613,-0.907c0.262,-0.257 0.57,-0.458 0.924,-0.602c0.353,-0.144 0.737,-0.216 1.151,-0.216c0.44,0 0.832,0.071 1.175,0.212c0.343,0.142 0.643,0.336 0.9,0.582l-0.826,0.833c-0.146,-0.157 -0.323,-0.28 -0.53,-0.369c-0.207,-0.089 -0.447,-0.134 -0.719,-0.134c-0.241,-0 -0.462,0.041 -0.664,0.122c-0.202,0.081 -0.375,0.198 -0.519,0.35c-0.144,0.151 -0.257,0.335 -0.338,0.55c-0.081,0.214 -0.122,0.45 -0.122,0.707c0,0.262 0.041,0.5 0.122,0.715c0.081,0.215 0.194,0.398 0.338,0.55c0.144,0.152 0.317,0.27 0.519,0.354c0.202,0.084 0.423,0.125 0.664,0.125c0.283,0 0.529,-0.044 0.739,-0.133c0.209,-0.089 0.39,-0.212 0.542,-0.369l0.833,0.833c-0.267,0.246 -0.573,0.44 -0.916,0.581c-0.343,0.141 -0.74,0.212 -1.19,0.212Z" style="fill:#1886c8;fill-rule:nonzero;"/><rect x="198.07" y="67.723" width="1.234" height="5.548" style="fill:#1886c8;fill-rule:nonzero;"/><path d="M200.609,73.271l-0,-5.548l1.234,-0l-0,5.548l-1.234,-0Zm0.943,-0l-0,-1.069l3.041,0l-0,1.069l-3.041,-0Zm-0,-2.318l-0,-1.03l2.766,0l-0,1.03l-2.766,-0Zm-0,-2.169l-0,-1.061l3.002,-0l-0,1.061l-3.002,-0Z" style="fill:#1886c8;fill-rule:nonzero;"/><path d="M207.202,73.357c-0.456,0 -0.847,-0.074 -1.175,-0.224c-0.327,-0.149 -0.627,-0.376 -0.9,-0.68l0.802,-0.793c0.178,0.204 0.376,0.363 0.593,0.475c0.218,0.113 0.47,0.169 0.759,0.169c0.262,0 0.465,-0.047 0.609,-0.141c0.144,-0.095 0.216,-0.226 0.216,-0.393c-0,-0.152 -0.047,-0.275 -0.142,-0.37c-0.094,-0.094 -0.218,-0.175 -0.373,-0.243c-0.155,-0.068 -0.325,-0.134 -0.511,-0.197c-0.186,-0.062 -0.37,-0.135 -0.554,-0.216c-0.183,-0.081 -0.352,-0.183 -0.507,-0.306c-0.154,-0.123 -0.279,-0.278 -0.373,-0.464c-0.094,-0.186 -0.141,-0.42 -0.141,-0.703c-0,-0.341 0.082,-0.634 0.247,-0.88c0.165,-0.247 0.394,-0.434 0.688,-0.562c0.293,-0.129 0.631,-0.193 1.013,-0.193c0.388,0 0.743,0.068 1.065,0.205c0.323,0.136 0.588,0.322 0.798,0.558l-0.802,0.793c-0.167,-0.173 -0.336,-0.301 -0.506,-0.385c-0.171,-0.084 -0.363,-0.126 -0.578,-0.126c-0.215,0 -0.385,0.041 -0.511,0.122c-0.126,0.081 -0.189,0.198 -0.189,0.35c0,0.141 0.048,0.255 0.142,0.342c0.094,0.086 0.219,0.161 0.373,0.224c0.155,0.063 0.325,0.125 0.511,0.188c0.186,0.063 0.371,0.137 0.554,0.22c0.183,0.084 0.352,0.19 0.507,0.319c0.154,0.128 0.279,0.29 0.373,0.487c0.095,0.196 0.142,0.439 0.142,0.727c-0,0.529 -0.189,0.944 -0.566,1.245c-0.377,0.302 -0.899,0.452 -1.564,0.452Z" style="fill:#1886c8;fill-rule:nonzero;"/></g></svg>