<?xml version="1.0" encoding="UTF-8" standalone="no"?><!DOCTYPE svg PUBLIC "-//W3C//DTD SVG 1.1//EN" "http://www.w3.org/Graphics/SVG/1.1/DTD/svg11.dtd"><svg width="100%" height="100%" viewBox="0 0 224 69" version="1.1" xmlns="http://www.w3.org/2000/svg" xmlns:xlink="http://www.w3.org/1999/xlink" xml:space="preserve" xmlns:serif="http://www.serif.com/" style="fill-rule:evenodd;clip-rule:evenodd;stroke-linejoin:round;stroke-miterlimit:2;"><g><path d="M223.38,38.972c-0,-9.03 -7.331,-16.361 -16.361,-16.361l-183.016,-0c-9.029,-0 -16.36,7.331 -16.36,16.361c-0,9.029 7.331,16.361 16.36,16.361l183.016,-0c9.03,-0 16.361,-7.332 16.361,-16.361Z" style="fill:#f0f0f0;"/><g><path d="M56.356,19.229l-0,-7.945c-0,-1.19 -0.351,-2.154 -1.051,-2.893c-0.701,-0.739 -1.627,-1.108 -2.778,-1.108c-0.787,-0 -1.478,0.173 -2.073,0.518c-0.595,0.345 -1.065,0.816 -1.41,1.411c-0.346,0.594 -0.518,1.276 -0.518,2.043l-0.921,-0.518c-0,-1.017 0.239,-1.928 0.719,-2.734c0.48,-0.806 1.128,-1.44 1.943,-1.9c0.816,-0.461 1.751,-0.691 2.807,-0.691c1.036,-0 1.957,0.249 2.763,0.748c0.806,0.499 1.435,1.171 1.886,2.015c0.451,0.845 0.676,1.766 0.676,2.764l0,8.29l-2.043,0Zm-9.845,0l-0,-13.529l2.015,-0l-0,13.529l-2.015,0Z" style="fill:#0087ce;fill-rule:nonzero;"/><path d="M67.525,19.517c-1.094,0 -2.073,-0.254 -2.937,-0.763c-0.863,-0.508 -1.54,-1.204 -2.029,-2.087c-0.489,-0.883 -0.734,-1.919 -0.734,-3.109l-0,-7.858l2.044,-0l-0,7.772c-0,0.825 0.148,1.545 0.446,2.159c0.297,0.614 0.724,1.094 1.281,1.439c0.556,0.346 1.199,0.518 1.929,0.518c1.132,0 2.029,-0.374 2.691,-1.122c0.662,-0.749 0.993,-1.747 0.993,-2.994l0,-7.772l2.015,-0l0,7.858c0,1.171 -0.24,2.207 -0.719,3.109c-0.48,0.902 -1.152,1.603 -2.015,2.102c-0.864,0.499 -1.852,0.748 -2.965,0.748Z" style="fill:#0087ce;fill-rule:nonzero;"/><path d="M79.097,19.229l-0,-19.229l2.015,-0l-0,19.229l-2.015,0Zm-3.426,-11.716l0,-1.813l8.837,-0l0,1.813l-8.837,0Z" style="fill:#0087ce;fill-rule:nonzero;"/><path d="M92.655,19.517c-1.286,0 -2.437,-0.312 -3.454,-0.936c-1.018,-0.623 -1.819,-1.463 -2.404,-2.518c-0.585,-1.056 -0.878,-2.246 -0.878,-3.57c-0,-1.343 0.293,-2.547 0.878,-3.612c0.585,-1.066 1.386,-1.91 2.404,-2.534c1.017,-0.623 2.159,-0.935 3.425,-0.935c1.036,-0 1.962,0.206 2.778,0.619c0.816,0.412 1.478,0.988 1.986,1.727c0.509,0.739 0.821,1.598 0.936,2.576l-0,4.232c-0.115,0.979 -0.427,1.842 -0.936,2.591c-0.508,0.748 -1.17,1.329 -1.986,1.741c-0.816,0.413 -1.732,0.619 -2.749,0.619Zm0.317,-1.929c1.4,0 2.528,-0.47 3.382,-1.41c0.854,-0.941 1.281,-2.178 1.281,-3.714c-0,-1.017 -0.197,-1.914 -0.59,-2.691c-0.394,-0.777 -0.941,-1.382 -1.641,-1.814c-0.7,-0.431 -1.521,-0.647 -2.461,-0.647c-0.96,-0 -1.809,0.22 -2.548,0.662c-0.739,0.441 -1.324,1.05 -1.756,1.828c-0.432,0.777 -0.647,1.664 -0.647,2.662c-0,0.998 0.215,1.881 0.647,2.649c0.432,0.767 1.022,1.372 1.771,1.813c0.748,0.442 1.602,0.662 2.562,0.662Zm4.548,1.641l-0,-3.627l0.403,-3.339l-0.403,-3.253l-0,-3.31l2.015,-0l-0,13.529l-2.015,0Z" style="fill:#0087ce;fill-rule:nonzero;"/><path d="M113.467,19.229l0,-7.945c0,-1.19 -0.35,-2.154 -1.05,-2.893c-0.701,-0.739 -1.627,-1.108 -2.778,-1.108c-0.787,-0 -1.478,0.173 -2.073,0.518c-0.595,0.345 -1.065,0.816 -1.41,1.411c-0.346,0.594 -0.519,1.276 -0.519,2.043l-0.921,-0.518c0,-1.017 0.24,-1.928 0.72,-2.734c0.48,-0.806 1.127,-1.44 1.943,-1.9c0.816,-0.461 1.751,-0.691 2.807,-0.691c1.036,-0 1.957,0.249 2.763,0.748c0.806,0.499 1.435,1.171 1.886,2.015c0.451,0.845 0.676,1.766 0.676,2.764l0,8.29l-2.044,0Zm-9.845,0l0,-13.529l2.015,-0l0,13.529l-2.015,0Z" style="fill:#0087ce;fill-rule:nonzero;"/></g><g><path d="M46.511,52.315l-0,-25.565l4.055,0l10.067,15.679l-2.064,0l10.03,-15.679l4.091,0l0,25.565l-5.684,-0l-0,-15.969l1.013,0.253l-6.554,10.212l-3.765,-0l-6.518,-10.212l0.977,-0.253l0,15.969l-5.648,-0Z" style="fill:#231f20;fill-rule:nonzero;"/><path d="M77.579,52.315l-0,-25.565l5.685,0l-0,25.565l-5.685,-0Zm4.345,-0l0,-4.925l14.013,0l0,4.925l-14.013,-0Zm0,-10.682l0,-4.744l12.746,0l-0,4.744l-12.746,-0Zm0,-9.994l0,-4.889l13.832,0l0,4.889l-13.832,-0Z" style="fill:#231f20;fill-rule:nonzero;"/><path d="M103.686,52.315l0,-4.997l6.337,-0c1.545,-0 2.897,-0.308 4.055,-0.924c1.159,-0.615 2.052,-1.515 2.68,-2.697c0.628,-1.183 0.941,-2.583 0.941,-4.201c0,-1.617 -0.319,-3.005 -0.959,-4.164c-0.64,-1.159 -1.533,-2.052 -2.68,-2.679c-1.146,-0.628 -2.492,-0.942 -4.037,-0.942l-6.518,0l0,-4.961l6.59,0c1.932,0 3.712,0.308 5.341,0.924c1.63,0.615 3.054,1.496 4.273,2.643c1.219,1.147 2.161,2.498 2.825,4.056c0.663,1.557 0.995,3.277 0.995,5.159c0,1.859 -0.332,3.573 -0.995,5.142c-0.664,1.569 -1.6,2.921 -2.807,4.056c-1.207,1.134 -2.625,2.015 -4.254,2.643c-1.63,0.628 -3.398,0.942 -5.305,0.942l-6.482,-0Zm-3.838,-0l-0,-25.565l5.685,0l-0,25.565l-5.685,-0Z" style="fill:#231f20;fill-rule:nonzero;"/><rect x="127.15" y="26.75" width="5.685" height="25.564" style="fill:#231f20;fill-rule:nonzero;"/><path d="M149.89,52.713c-1.907,-0 -3.675,-0.332 -5.305,-0.996c-1.629,-0.664 -3.053,-1.599 -4.272,-2.806c-1.219,-1.207 -2.167,-2.613 -2.843,-4.219c-0.676,-1.605 -1.014,-3.337 -1.014,-5.196c0,-1.859 0.338,-3.591 1.014,-5.196c0.676,-1.605 1.617,-2.999 2.824,-4.182c1.207,-1.183 2.626,-2.106 4.255,-2.77c1.63,-0.664 3.398,-0.996 5.305,-0.996c2.028,0 3.832,0.326 5.413,0.978c1.581,0.651 2.963,1.545 4.146,2.679l-3.802,3.838c-0.676,-0.724 -1.49,-1.291 -2.444,-1.701c-0.953,-0.411 -2.058,-0.616 -3.313,-0.616c-1.111,0 -2.13,0.187 -3.06,0.561c-0.929,0.374 -1.726,0.912 -2.39,1.612c-0.664,0.7 -1.183,1.545 -1.557,2.534c-0.374,0.99 -0.561,2.076 -0.561,3.259c0,1.207 0.187,2.306 0.561,3.295c0.374,0.99 0.893,1.835 1.557,2.535c0.664,0.7 1.461,1.243 2.39,1.629c0.93,0.387 1.949,0.58 3.06,0.58c1.303,-0 2.438,-0.205 3.404,-0.616c0.965,-0.41 1.798,-0.977 2.498,-1.702l3.838,3.839c-1.231,1.134 -2.637,2.027 -4.218,2.679c-1.581,0.652 -3.41,0.978 -5.486,0.978Z" style="fill:#231f20;fill-rule:nonzero;"/><path d="M160.138,52.315l10.138,-25.565l5.142,0l10.03,25.565l-6.011,-0l-7.676,-21.219l2.064,-0l-7.785,21.219l-5.902,-0Zm5.757,-4.635l-0,-4.635l13.941,-0l-0,4.635l-13.941,-0Z" style="fill:#231f20;fill-rule:nonzero;"/><path d="M188.164,52.315l0,-25.565l5.685,0l0,25.565l-5.685,-0Zm4.381,-0l0,-4.997l12.638,-0l-0,4.997l-12.638,-0Z" style="fill:#231f20;fill-rule:nonzero;"/></g><g><path d="M52.142,67.896l-4.459,-4.782c-0.35,-0.376 -0.609,-0.734 -0.779,-1.074c-0.171,-0.341 -0.256,-0.717 -0.256,-1.129c0,-0.474 0.112,-0.898 0.336,-1.269c0.224,-0.372 0.533,-0.667 0.927,-0.887c0.394,-0.219 0.846,-0.329 1.357,-0.329c0.376,0 0.718,0.061 1.027,0.181c0.309,0.121 0.582,0.28 0.82,0.477c0.237,0.197 0.436,0.421 0.598,0.672l-0.874,0.792c-0.206,-0.286 -0.432,-0.517 -0.678,-0.691c-0.246,-0.175 -0.544,-0.262 -0.893,-0.262c-0.403,-0 -0.739,0.121 -1.008,0.362c-0.268,0.242 -0.403,0.556 -0.403,0.941c0,0.322 0.067,0.595 0.202,0.819c0.134,0.224 0.336,0.484 0.604,0.779l4.957,5.4l-1.478,0Zm-3.344,0.135c-0.618,-0 -1.16,-0.121 -1.626,-0.363c-0.465,-0.242 -0.826,-0.575 -1.081,-1.001c-0.255,-0.425 -0.383,-0.911 -0.383,-1.457c0,-0.565 0.152,-1.075 0.457,-1.532c0.304,-0.456 0.748,-0.819 1.33,-1.088l0.577,0.753c-0.358,0.179 -0.64,0.423 -0.846,0.732c-0.206,0.309 -0.309,0.678 -0.309,1.108c0,0.349 0.081,0.649 0.242,0.9c0.161,0.251 0.387,0.445 0.678,0.584c0.291,0.139 0.625,0.208 1.001,0.208c0.475,0 0.878,-0.098 1.209,-0.295c0.331,-0.197 0.582,-0.448 0.752,-0.752l0.793,0.926c-0.179,0.242 -0.415,0.459 -0.706,0.652c-0.291,0.192 -0.613,0.345 -0.967,0.457c-0.353,0.112 -0.727,0.168 -1.121,0.168Z" style="fill:#231f20;fill-rule:nonzero;"/><path d="M59.544,67.896l-3.049,-9.322l1.262,-0l2.418,7.603l-0.362,-0l2.377,-7.603l0.914,-0l2.377,7.603l-0.349,-0l2.418,-7.603l1.249,-0l-3.036,9.322l-0.9,0l-2.391,-7.589l0.35,-0l-2.378,7.589l-0.9,0Z" style="fill:#231f20;fill-rule:nonzero;"/><path d="M70.344,67.896l-0,-9.322l1.263,-0l-0,9.322l-1.263,0Zm6.018,0l-0,-9.322l1.263,-0l-0,9.322l-1.263,0Zm-5.158,-4.245l-0,-1.155l5.467,0l-0,1.155l-5.467,0Z" style="fill:#231f20;fill-rule:nonzero;"/><path d="M84.072,68.031c-0.662,-0 -1.28,-0.124 -1.853,-0.37c-0.574,-0.246 -1.075,-0.591 -1.505,-1.034c-0.43,-0.443 -0.763,-0.956 -1.001,-1.538c-0.237,-0.582 -0.356,-1.205 -0.356,-1.867c0,-0.672 0.119,-1.297 0.356,-1.874c0.238,-0.578 0.569,-1.086 0.994,-1.525c0.426,-0.439 0.923,-0.779 1.491,-1.021c0.569,-0.242 1.185,-0.362 1.847,-0.362c0.663,-0 1.279,0.12 1.847,0.362c0.569,0.242 1.068,0.582 1.498,1.021c0.43,0.439 0.766,0.949 1.008,1.531c0.241,0.583 0.362,1.209 0.362,1.881c0,0.663 -0.121,1.285 -0.362,1.867c-0.242,0.582 -0.576,1.093 -1.001,1.532c-0.425,0.438 -0.922,0.781 -1.491,1.027c-0.569,0.246 -1.18,0.37 -1.834,0.37Zm-0.027,-1.209c0.672,-0 1.261,-0.155 1.767,-0.464c0.506,-0.309 0.907,-0.734 1.202,-1.276c0.296,-0.542 0.443,-1.162 0.443,-1.86c0,-0.52 -0.085,-0.997 -0.255,-1.431c-0.17,-0.434 -0.407,-0.813 -0.712,-1.135c-0.304,-0.322 -0.663,-0.571 -1.074,-0.746c-0.412,-0.174 -0.869,-0.262 -1.371,-0.262c-0.662,0 -1.247,0.153 -1.753,0.457c-0.506,0.305 -0.904,0.726 -1.195,1.263c-0.291,0.537 -0.437,1.155 -0.437,1.854c0,0.519 0.083,1 0.249,1.444c0.166,0.443 0.398,0.824 0.698,1.141c0.3,0.318 0.659,0.567 1.075,0.746c0.416,0.179 0.871,0.269 1.363,0.269Z" style="fill:#231f20;fill-rule:nonzero;"/><path d="M90.493,67.896l0,-9.322l1.263,-0l-0,9.322l-1.263,0Zm0.86,0l-0,-1.155l4.997,0l-0,1.155l-4.997,0Z" style="fill:#231f20;fill-rule:nonzero;"/><path d="M97.908,67.896l0,-9.322l1.263,-0l-0,9.322l-1.263,0Zm0.86,0l-0,-1.155l5.346,0l0,1.155l-5.346,0Zm-0,-4.218l-0,-1.101l4.903,-0l-0,1.101l-4.903,0Zm-0,-3.949l-0,-1.155l5.279,-0l-0,1.155l-5.279,0Z" style="fill:#231f20;fill-rule:nonzero;"/><path d="M108.184,68.031c-0.734,-0 -1.361,-0.135 -1.88,-0.403c-0.52,-0.269 -0.981,-0.659 -1.384,-1.169l0.86,-0.86c0.295,0.412 0.636,0.723 1.021,0.934c0.385,0.21 0.859,0.315 1.424,0.315c0.555,0 1,-0.12 1.336,-0.362c0.336,-0.242 0.504,-0.573 0.504,-0.994c-0,-0.349 -0.081,-0.632 -0.242,-0.847c-0.161,-0.214 -0.378,-0.391 -0.651,-0.53c-0.274,-0.139 -0.571,-0.264 -0.894,-0.376c-0.322,-0.112 -0.645,-0.233 -0.967,-0.363c-0.322,-0.13 -0.618,-0.291 -0.886,-0.483c-0.269,-0.193 -0.486,-0.446 -0.652,-0.759c-0.166,-0.314 -0.248,-0.708 -0.248,-1.183c-0,-0.528 0.127,-0.978 0.382,-1.35c0.256,-0.371 0.605,-0.658 1.048,-0.859c0.443,-0.202 0.943,-0.302 1.498,-0.302c0.609,-0 1.155,0.118 1.639,0.355c0.483,0.238 0.877,0.549 1.182,0.934l-0.86,0.86c-0.278,-0.323 -0.575,-0.564 -0.893,-0.726c-0.318,-0.161 -0.683,-0.241 -1.095,-0.241c-0.501,-0 -0.9,0.109 -1.196,0.329c-0.295,0.219 -0.443,0.526 -0.443,0.92c0,0.313 0.083,0.566 0.249,0.759c0.165,0.192 0.383,0.356 0.651,0.49c0.269,0.134 0.567,0.258 0.893,0.37c0.327,0.111 0.652,0.235 0.974,0.369c0.323,0.134 0.618,0.304 0.887,0.51c0.269,0.206 0.486,0.473 0.651,0.8c0.166,0.326 0.249,0.736 0.249,1.229c-0,0.824 -0.284,1.468 -0.853,1.934c-0.569,0.466 -1.337,0.699 -2.304,0.699Z" style="fill:#231f20;fill-rule:nonzero;"/><path d="M112.066,67.896l3.815,-9.322l0.914,-0l3.801,9.322l-1.37,0l-3.13,-7.885l0.47,0l-3.156,7.885l-1.344,0Zm1.814,-2.109l-0,-1.101l4.903,-0l-0,1.101l-4.903,0Z" style="fill:#231f20;fill-rule:nonzero;"/><path d="M121.993,67.896l0,-9.322l1.263,-0l-0,9.322l-1.263,0Zm0.86,0l-0,-1.155l4.997,0l-0,1.155l-4.997,0Z" style="fill:#231f20;fill-rule:nonzero;"/><path d="M129.408,67.896l0,-9.322l1.263,-0l-0,9.322l-1.263,0Zm0.86,0l-0,-1.155l5.346,0l0,1.155l-5.346,0Zm-0,-4.218l-0,-1.101l4.903,-0l-0,1.101l-4.903,0Zm-0,-3.949l-0,-1.155l5.279,-0l-0,1.155l-5.279,0Z" style="fill:#231f20;fill-rule:nonzero;"/><path d="M141.86,67.896l3.815,-9.322l0.914,-0l3.801,9.322l-1.37,0l-3.13,-7.885l0.47,0l-3.156,7.885l-1.344,0Zm1.814,-2.109l-0,-1.101l4.903,-0l-0,1.101l-4.903,0Z" style="fill:#231f20;fill-rule:nonzero;"/><path d="M155.414,68.031c-0.654,-0 -1.265,-0.124 -1.834,-0.37c-0.568,-0.246 -1.065,-0.589 -1.491,-1.027c-0.425,-0.439 -0.759,-0.95 -1,-1.532c-0.242,-0.582 -0.363,-1.209 -0.363,-1.88c0,-0.672 0.121,-1.297 0.363,-1.874c0.241,-0.578 0.577,-1.086 1.007,-1.525c0.43,-0.439 0.934,-0.779 1.511,-1.021c0.578,-0.242 1.207,-0.362 1.888,-0.362c0.743,-0 1.428,0.143 2.055,0.429c0.627,0.287 1.151,0.699 1.572,1.236l-0.874,0.873c-0.295,-0.43 -0.685,-0.759 -1.168,-0.987c-0.484,-0.228 -1.012,-0.343 -1.585,-0.343c-0.681,0 -1.283,0.153 -1.807,0.457c-0.524,0.305 -0.931,0.726 -1.222,1.263c-0.291,0.537 -0.437,1.155 -0.437,1.854c-0,0.707 0.148,1.329 0.443,1.867c0.296,0.537 0.694,0.958 1.196,1.262c0.501,0.305 1.074,0.457 1.719,0.457c0.654,0 1.22,-0.125 1.699,-0.376c0.48,-0.251 0.849,-0.62 1.109,-1.108c0.259,-0.488 0.389,-1.086 0.389,-1.793l0.766,0.55l-4.03,0l0,-1.155l4.567,0l0,0.188c0,1.084 -0.19,1.99 -0.571,2.72c-0.38,0.73 -0.909,1.279 -1.585,1.646c-0.676,0.367 -1.448,0.551 -2.317,0.551Z" style="fill:#231f20;fill-rule:nonzero;"/><path d="M161.58,67.896l-0,-9.322l1.262,-0l0,9.322l-1.262,0Zm0.859,0l0,-1.155l5.347,0l-0,1.155l-5.347,0Zm0,-4.218l0,-1.101l4.903,-0l0,1.101l-4.903,0Zm0,-3.949l0,-1.155l5.28,-0l-0,1.155l-5.28,0Z" style="fill:#231f20;fill-rule:nonzero;"/><path d="M169.505,67.896l0,-9.322l0.887,-0l0.376,1.464l-0,7.858l-1.263,0Zm6.448,0l-5.723,-7.643l0.162,-1.679l5.735,7.63l-0.174,1.692Zm-0,0l-0.376,-1.383l-0,-7.939l1.262,-0l0,9.322l-0.886,0Z" style="fill:#231f20;fill-rule:nonzero;"/><path d="M183.274,68.031c-0.672,-0 -1.294,-0.124 -1.867,-0.37c-0.574,-0.246 -1.073,-0.589 -1.498,-1.027c-0.426,-0.439 -0.755,-0.95 -0.987,-1.532c-0.233,-0.582 -0.35,-1.204 -0.35,-1.867c0,-0.672 0.117,-1.298 0.35,-1.881c0.232,-0.582 0.561,-1.09 0.987,-1.524c0.425,-0.435 0.922,-0.775 1.491,-1.021c0.569,-0.246 1.189,-0.369 1.86,-0.369c0.735,-0 1.379,0.125 1.935,0.376c0.555,0.25 1.047,0.591 1.477,1.021l-0.873,0.873c-0.295,-0.332 -0.656,-0.591 -1.081,-0.779c-0.426,-0.188 -0.911,-0.283 -1.458,-0.283c-0.492,0 -0.944,0.088 -1.356,0.262c-0.412,0.175 -0.771,0.424 -1.075,0.746c-0.304,0.322 -0.54,0.703 -0.705,1.142c-0.166,0.439 -0.249,0.918 -0.249,1.437c0,0.519 0.083,0.999 0.249,1.437c0.165,0.439 0.401,0.82 0.705,1.142c0.304,0.323 0.663,0.571 1.075,0.746c0.412,0.174 0.864,0.262 1.356,0.262c0.582,-0 1.088,-0.097 1.518,-0.289c0.43,-0.193 0.793,-0.455 1.088,-0.786l0.873,0.86c-0.429,0.447 -0.933,0.797 -1.511,1.047c-0.577,0.251 -1.229,0.377 -1.954,0.377Z" style="fill:#231f20;fill-rule:nonzero;"/><rect x="188.284" y="58.574" width="1.263" height="9.322" style="fill:#231f20;fill-rule:nonzero;"/><path d="M191.75,67.896l-0,-9.322l1.263,-0l-0,9.322l-1.263,0Zm0.86,0l-0,-1.155l5.346,0l-0,1.155l-5.346,0Zm-0,-4.218l-0,-1.101l4.903,-0l-0,1.101l-4.903,0Zm-0,-3.949l-0,-1.155l5.279,-0l-0,1.155l-5.279,0Z" style="fill:#231f20;fill-rule:nonzero;"/><path d="M202.026,68.031c-0.734,-0 -1.361,-0.135 -1.881,-0.403c-0.519,-0.269 -0.98,-0.659 -1.383,-1.169l0.86,-0.86c0.295,0.412 0.635,0.723 1.02,0.934c0.386,0.21 0.86,0.315 1.424,0.315c0.556,0 1.001,-0.12 1.337,-0.362c0.336,-0.242 0.504,-0.573 0.504,-0.994c-0,-0.349 -0.081,-0.632 -0.242,-0.847c-0.161,-0.214 -0.379,-0.391 -0.652,-0.53c-0.273,-0.139 -0.571,-0.264 -0.893,-0.376c-0.322,-0.112 -0.645,-0.233 -0.967,-0.363c-0.323,-0.13 -0.618,-0.291 -0.887,-0.483c-0.268,-0.193 -0.486,-0.446 -0.651,-0.759c-0.166,-0.314 -0.249,-0.708 -0.249,-1.183c0,-0.528 0.128,-0.978 0.383,-1.35c0.255,-0.371 0.605,-0.658 1.048,-0.859c0.443,-0.202 0.942,-0.302 1.498,-0.302c0.609,-0 1.155,0.118 1.638,0.355c0.484,0.238 0.878,0.549 1.183,0.934l-0.86,0.86c-0.278,-0.323 -0.576,-0.564 -0.893,-0.726c-0.318,-0.161 -0.683,-0.241 -1.095,-0.241c-0.502,-0 -0.9,0.109 -1.196,0.329c-0.295,0.219 -0.443,0.526 -0.443,0.92c-0,0.313 0.083,0.566 0.249,0.759c0.165,0.192 0.382,0.356 0.651,0.49c0.269,0.134 0.566,0.258 0.893,0.37c0.327,0.111 0.652,0.235 0.974,0.369c0.323,0.134 0.618,0.304 0.887,0.51c0.268,0.206 0.486,0.473 0.651,0.8c0.166,0.326 0.249,0.736 0.249,1.229c-0,0.824 -0.285,1.468 -0.853,1.934c-0.569,0.466 -1.337,0.699 -2.304,0.699Z" style="fill:#231f20;fill-rule:nonzero;"/></g><g><circle cx="16.361" cy="38.972" r="16.361" style="fill:#ff3900;"/><text x="5.245px" y="52.219px" style="font-family:'Outfit-Bold', 'Outfit';font-weight:700;font-size:39.487px;fill:#fff;">+</text></g></g></svg>